<?xml version="1.0" encoding="UTF-8"?>
<svg width="500pt" height="500pt" version="1.1" viewBox="0 0 700 600" xmlns="http://www.w3.org/2000/svg" xmlns:xlink="http://www.w3.org/1999/xlink">
 <defs>
  <symbol id="x" overflow="visible">
   <path d="m18.766-1.125c-0.96875 0.5-1.9805 0.875-3.0312 1.125-1.043 0.25781-2.1367 0.39062-3.2812 0.39062-3.3984 0-6.0898-0.94531-8.0781-2.8438-1.9922-1.9062-2.9844-4.4844-2.9844-7.7344 0-3.2578 0.99219-5.8359 2.9844-7.7344 1.9883-1.9062 4.6797-2.8594 8.0781-2.8594 1.1445 0 2.2383 0.13281 3.2812 0.39062 1.0508 0.25 2.0625 0.625 3.0312 1.125v4.2188c-0.98047-0.65625-1.9453-1.1406-2.8906-1.4531-0.94922-0.3125-1.9492-0.46875-3-0.46875-1.875 0-3.3516 0.60547-4.4219 1.8125-1.0742 1.1992-1.6094 2.8555-1.6094 4.9688 0 2.1055 0.53516 3.7617 1.6094 4.9688 1.0703 1.1992 2.5469 1.7969 4.4219 1.7969 1.0508 0 2.0508-0.14844 3-0.45312 0.94531-0.3125 1.9102-0.80078 2.8906-1.4688z"/>
  </symbol>
  <symbol id="c" overflow="visible">
   <path d="m13.734-11.141c-0.4375-0.19531-0.87109-0.34375-1.2969-0.4375-0.41797-0.10156-0.83984-0.15625-1.2656-0.15625-1.2617 0-2.2305 0.40625-2.9062 1.2188-0.67969 0.80469-1.0156 1.9531-1.0156 3.4531v7.0625h-4.8906v-15.312h4.8906v2.5156c0.625-1 1.3438-1.7266 2.1562-2.1875 0.82031-0.46875 1.8008-0.70312 2.9375-0.70312 0.16406 0 0.34375 0.011719 0.53125 0.03125 0.19531 0.011719 0.47656 0.039062 0.84375 0.078125z"/>
  </symbol>
  <symbol id="a" overflow="visible">
   <path d="m17.641-7.7031v1.4062h-11.453c0.125 1.1484 0.53906 2.0078 1.25 2.5781 0.70703 0.57422 1.7031 0.85938 2.9844 0.85938 1.0312 0 2.082-0.14844 3.1562-0.45312 1.082-0.3125 2.1914-0.77344 3.3281-1.3906v3.7656c-1.1562 0.4375-2.3125 0.76562-3.4688 0.98438-1.1562 0.22656-2.3125 0.34375-3.4688 0.34375-2.7734 0-4.9297-0.70312-6.4688-2.1094-1.5312-1.4062-2.2969-3.3789-2.2969-5.9219 0-2.5 0.75391-4.4609 2.2656-5.8906 1.5078-1.4375 3.582-2.1562 6.2188-2.1562 2.4062 0 4.332 0.73047 5.7812 2.1875 1.4453 1.4492 2.1719 3.3828 2.1719 5.7969zm-5.0312-1.625c0-0.92578-0.27344-1.6719-0.8125-2.2344-0.54297-0.57031-1.25-0.85938-2.125-0.85938-0.94922 0-1.7188 0.26562-2.3125 0.79688s-0.96484 1.2969-1.1094 2.2969z"/>
  </symbol>
  <symbol id="h" overflow="visible">
   <path d="m9.2188-6.8906c-1.0234 0-1.793 0.17188-2.3125 0.51562-0.51172 0.34375-0.76562 0.85547-0.76562 1.5312 0 0.625 0.20703 1.1172 0.625 1.4688 0.41406 0.34375 0.98828 0.51562 1.7188 0.51562 0.92578 0 1.7031-0.32812 2.3281-0.98438 0.63281-0.66406 0.95312-1.4922 0.95312-2.4844v-0.5625zm7.4688-1.8438v8.7344h-4.9219v-2.2656c-0.65625 0.92969-1.3984 1.6055-2.2188 2.0312-0.82422 0.41406-1.8242 0.625-3 0.625-1.5859 0-2.8711-0.45703-3.8594-1.375-0.99219-0.92578-1.4844-2.1289-1.4844-3.6094 0-1.7891 0.61328-3.1016 1.8438-3.9375 1.2383-0.84375 3.1797-1.2656 5.8281-1.2656h2.8906v-0.39062c0-0.76953-0.30859-1.332-0.92188-1.6875-0.61719-0.36328-1.5703-0.54688-2.8594-0.54688-1.0547 0-2.0312 0.10547-2.9375 0.3125-0.89844 0.21094-1.7305 0.52344-2.5 0.9375v-3.7344c1.0391-0.25 2.0859-0.44141 3.1406-0.57812 1.0625-0.13281 2.125-0.20312 3.1875-0.20312 2.7578 0 4.75 0.54688 5.9688 1.6406 1.2266 1.0859 1.8438 2.8555 1.8438 5.3125z"/>
  </symbol>
  <symbol id="b" overflow="visible">
   <path d="m7.7031-19.656v4.3438h5.0469v3.5h-5.0469v6.5c0 0.71094 0.14062 1.1875 0.42188 1.4375s0.83594 0.375 1.6719 0.375h2.5156v3.5h-4.1875c-1.9375 0-3.3125-0.39844-4.125-1.2031-0.80469-0.8125-1.2031-2.1797-1.2031-4.1094v-6.5h-2.4219v-3.5h2.4219v-4.3438z"/>
  </symbol>
  <symbol id="j" overflow="visible">
   <path d="m12.766-13.078v-8.2031h4.9219v21.281h-4.9219v-2.2188c-0.66797 0.90625-1.4062 1.5703-2.2188 1.9844s-1.7578 0.625-2.8281 0.625c-1.8867 0-3.4336-0.75-4.6406-2.25-1.2109-1.5-1.8125-3.4258-1.8125-5.7812 0-2.3633 0.60156-4.2969 1.8125-5.7969 1.207-1.5 2.7539-2.25 4.6406-2.25 1.0625 0 2 0.21484 2.8125 0.64062 0.82031 0.42969 1.5664 1.0859 2.2344 1.9688zm-3.2188 9.9219c1.0391 0 1.8359-0.37891 2.3906-1.1406 0.55078-0.76953 0.82812-1.8828 0.82812-3.3438 0-1.457-0.27734-2.5664-0.82812-3.3281-0.55469-0.76953-1.3516-1.1562-2.3906-1.1562-1.043 0-1.8398 0.38672-2.3906 1.1562-0.55469 0.76172-0.82812 1.8711-0.82812 3.3281 0 1.4609 0.27344 2.5742 0.82812 3.3438 0.55078 0.76172 1.3477 1.1406 2.3906 1.1406z"/>
  </symbol>
  <symbol id="i" overflow="visible">
   <path d="m10.5-3.1562c1.0508 0 1.8516-0.37891 2.4062-1.1406 0.55078-0.76953 0.82812-1.8828 0.82812-3.3438 0-1.457-0.27734-2.5664-0.82812-3.3281-0.55469-0.76953-1.3555-1.1562-2.4062-1.1562-1.0547 0-1.8594 0.38672-2.4219 1.1562-0.55469 0.77344-0.82812 1.8828-0.82812 3.3281 0 1.4492 0.27344 2.5586 0.82812 3.3281 0.5625 0.77344 1.3672 1.1562 2.4219 1.1562zm-3.25-9.9219c0.67578-0.88281 1.4219-1.5391 2.2344-1.9688 0.82031-0.42578 1.7656-0.64062 2.8281-0.64062 1.8945 0 3.4453 0.75 4.6562 2.25 1.207 1.5 1.8125 3.4336 1.8125 5.7969 0 2.3555-0.60547 4.2812-1.8125 5.7812-1.2109 1.5-2.7617 2.25-4.6562 2.25-1.0625 0-2.0078-0.21094-2.8281-0.625-0.8125-0.42578-1.5586-1.0859-2.2344-1.9844v2.2188h-4.8906v-21.281h4.8906z"/>
  </symbol>
  <symbol id="g" overflow="visible">
   <path d="m0.34375-15.312h4.8906l4.125 10.391 3.5-10.391h4.8906l-6.4375 16.766c-0.64844 1.6953-1.4023 2.8828-2.2656 3.5625-0.86719 0.6875-2 1.0312-3.4062 1.0312h-2.8438v-3.2188h1.5312c0.83203 0 1.4375-0.13672 1.8125-0.40625 0.38281-0.26172 0.67969-0.73047 0.89062-1.4062l0.14062-0.42188z"/>
  </symbol>
  <symbol id="f" overflow="visible">
   <path d="m7.8281-16.438v12.453h1.8906c2.1562 0 3.8008-0.53125 4.9375-1.5938 1.1328-1.0625 1.7031-2.6133 1.7031-4.6562 0-2.0195-0.57031-3.5547-1.7031-4.6094-1.125-1.0625-2.7734-1.5938-4.9375-1.5938zm-5.25-3.9688h5.5469c3.0938 0 5.3984 0.21875 6.9219 0.65625 1.5195 0.4375 2.8203 1.1875 3.9062 2.25 0.95703 0.91797 1.6641 1.9805 2.125 3.1875 0.46875 1.1992 0.70312 2.5586 0.70312 4.0781 0 1.543-0.23438 2.918-0.70312 4.125-0.46094 1.2109-1.168 2.2773-2.125 3.2031-1.0938 1.0547-2.4062 1.8047-3.9375 2.25-1.5312 0.4375-3.8281 0.65625-6.8906 0.65625h-5.5469z"/>
  </symbol>
  <symbol id="e" overflow="visible">
   <path d="m17.75-9.3281v9.3281h-4.9219v-7.1406c0-1.3203-0.03125-2.2344-0.09375-2.7344s-0.16797-0.86719-0.3125-1.1094c-0.1875-0.3125-0.44922-0.55469-0.78125-0.73438-0.32422-0.17578-0.69531-0.26562-1.1094-0.26562-1.0234 0-1.8242 0.39844-2.4062 1.1875-0.58594 0.78125-0.875 1.8711-0.875 3.2656v7.5312h-4.8906v-15.312h4.8906v2.2344c0.73828-0.88281 1.5195-1.5391 2.3438-1.9688 0.83203-0.42578 1.75-0.64062 2.75-0.64062 1.7695 0 3.1133 0.54688 4.0312 1.6406 0.91406 1.0859 1.375 2.6562 1.375 4.7188z"/>
  </symbol>
  <symbol id="w" overflow="visible">
   <path d="m2.3594-21.281h4.8906v11.594l5.625-5.625h5.6875l-7.4688 7.0312 8.0625 8.2812h-5.9375l-5.9688-6.3906v6.3906h-4.8906z"/>
  </symbol>
  <symbol id="v" overflow="visible">
   <path d="m10.75-12.516c0.82031 0 1.4453-0.17969 1.875-0.54688 0.4375-0.36328 0.65625-0.89844 0.65625-1.6094 0-0.69531-0.21875-1.2266-0.65625-1.5938-0.42969-0.375-1.0547-0.5625-1.875-0.5625h-2.9219v4.3125zm0.17188 8.9375c1.0625 0 1.8594-0.22266 2.3906-0.67188 0.53125-0.44531 0.79688-1.125 0.79688-2.0312 0-0.88281-0.26562-1.5469-0.79688-1.9844-0.52344-0.4375-1.3203-0.65625-2.3906-0.65625h-3.0938v5.3438zm4.8906-7.3438c1.1328 0.32422 2.0078 0.92969 2.625 1.8125 0.625 0.88672 0.9375 1.9688 0.9375 3.25 0 1.9688-0.66797 3.4375-2 4.4062-1.3359 0.96875-3.3555 1.4531-6.0625 1.4531h-8.7344v-20.406h7.8906c2.832 0 4.8828 0.42969 6.1562 1.2812 1.2812 0.85547 1.9219 2.2266 1.9219 4.1094 0 1-0.23438 1.8516-0.70312 2.5469-0.46875 0.6875-1.1484 1.2031-2.0312 1.5469z"/>
  </symbol>
  <symbol id="u" overflow="visible">
   <path d="m14.312-14.828v3.7188c-1.043-0.4375-2.0547-0.76562-3.0312-0.98438-0.98047-0.21875-1.9023-0.32812-2.7656-0.32812-0.92969 0-1.6211 0.11719-2.0781 0.34375-0.44922 0.23047-0.67188 0.58984-0.67188 1.0781 0 0.38672 0.17188 0.68359 0.51562 0.89062 0.34375 0.21094 0.95703 0.36719 1.8438 0.46875l0.85938 0.125c2.5078 0.32422 4.1953 0.85156 5.0625 1.5781 0.86328 0.73047 1.2969 1.8711 1.2969 3.4219 0 1.6367-0.60547 2.8672-1.8125 3.6875-1.1992 0.8125-2.9922 1.2188-5.375 1.2188-1.0234 0-2.0742-0.078125-3.1562-0.23438-1.0742-0.15625-2.1797-0.39453-3.3125-0.71875v-3.7188c0.96875 0.48047 1.9609 0.83984 2.9844 1.0781 1.0312 0.23047 2.0781 0.34375 3.1406 0.34375 0.95703 0 1.6758-0.12891 2.1562-0.39062 0.47656-0.26953 0.71875-0.66406 0.71875-1.1875 0-0.4375-0.16797-0.75781-0.5-0.96875-0.33594-0.21875-0.99609-0.38281-1.9844-0.5l-0.85938-0.10938c-2.1797-0.26953-3.7031-0.77344-4.5781-1.5156-0.875-0.73828-1.3125-1.8594-1.3125-3.3594 0-1.625 0.55078-2.8281 1.6562-3.6094 1.1133-0.78906 2.8203-1.1875 5.125-1.1875 0.89453 0 1.8359 0.074219 2.8281 0.21875 1 0.13672 2.082 0.35156 3.25 0.64062z"/>
  </symbol>
  <symbol id="t" overflow="visible">
   <path d="m2.3594-15.312h4.8906v15.312h-4.8906zm0-5.9688h4.8906v4h-4.8906z"/>
  </symbol>
  <symbol id="s" overflow="visible">
   <path d="m12.766-2.5938c-0.66797 0.88672-1.4062 1.543-2.2188 1.9688-0.8125 0.41797-1.7578 0.625-2.8281 0.625-1.8672 0-3.4062-0.73438-4.625-2.2031-1.2188-1.4766-1.8281-3.3516-1.8281-5.625 0-2.2891 0.60938-4.1641 1.8281-5.625 1.2188-1.4688 2.7578-2.2031 4.625-2.2031 1.0703 0 2.0156 0.21484 2.8281 0.64062 0.8125 0.41797 1.5508 1.0742 2.2188 1.9688v-2.2656h4.9219v13.766c0 2.457-0.77734 4.3359-2.3281 5.6406-1.5547 1.3008-3.8086 1.9531-6.7656 1.9531-0.94922 0-1.8711-0.074219-2.7656-0.21875-0.89844-0.14844-1.7969-0.37109-2.7031-0.67188v-3.8125c0.86328 0.48828 1.7031 0.85156 2.5156 1.0938 0.82031 0.23828 1.6484 0.35938 2.4844 0.35938 1.6016 0 2.7734-0.35156 3.5156-1.0469 0.75-0.69922 1.125-1.7969 1.125-3.2969zm-3.2188-9.5312c-1.0117 0-1.8047 0.375-2.375 1.125-0.5625 0.74219-0.84375 1.7969-0.84375 3.1719 0 1.3984 0.26953 2.4609 0.8125 3.1875 0.55078 0.71875 1.3516 1.0781 2.4062 1.0781 1.0195 0 1.8125-0.36719 2.375-1.1094 0.5625-0.75 0.84375-1.8008 0.84375-3.1562 0-1.375-0.28125-2.4297-0.84375-3.1719-0.5625-0.75-1.3555-1.125-2.375-1.125z"/>
  </symbol>
  <symbol id="r" overflow="visible">
   <path d="m12.422-21.281v3.2188h-2.7031c-0.6875 0-1.1719 0.125-1.4531 0.375-0.27344 0.25-0.40625 0.6875-0.40625 1.3125v1.0625h4.1875v3.5h-4.1875v11.812h-4.8906v-11.812h-2.4375v-3.5h2.4375v-1.0625c0-1.6641 0.46094-2.8984 1.3906-3.7031 0.92578-0.80078 2.3672-1.2031 4.3281-1.2031z"/>
  </symbol>
  <symbol id="d" overflow="visible">
   <path d="m9.6406-12.188c-1.0859 0-1.9141 0.39062-2.4844 1.1719-0.57422 0.78125-0.85938 1.9062-0.85938 3.375s0.28516 2.5938 0.85938 3.375c0.57031 0.77344 1.3984 1.1562 2.4844 1.1562 1.0625 0 1.875-0.38281 2.4375-1.1562 0.57031-0.78125 0.85938-1.9062 0.85938-3.375s-0.28906-2.5938-0.85938-3.375c-0.5625-0.78125-1.375-1.1719-2.4375-1.1719zm0-3.5c2.6328 0 4.6914 0.71484 6.1719 2.1406 1.4766 1.418 2.2188 3.3867 2.2188 5.9062 0 2.5117-0.74219 4.4805-2.2188 5.9062-1.4805 1.418-3.5391 2.125-6.1719 2.125-2.6484 0-4.7148-0.70703-6.2031-2.125-1.4922-1.4258-2.2344-3.3945-2.2344-5.9062 0-2.5195 0.74219-4.4883 2.2344-5.9062 1.4883-1.4258 3.5547-2.1406 6.2031-2.1406z"/>
  </symbol>
  <symbol id="q" overflow="visible">
   <path d="m16.547-12.766c0.61328-0.94531 1.3477-1.6719 2.2031-2.1719 0.85156-0.5 1.7891-0.75 2.8125-0.75 1.7578 0 3.0977 0.54688 4.0156 1.6406 0.92578 1.0859 1.3906 2.6562 1.3906 4.7188v9.3281h-4.9219v-7.9844-0.35938c0.007813-0.13281 0.015625-0.32031 0.015625-0.5625 0-1.082-0.16406-1.8633-0.48438-2.3438-0.3125-0.48828-0.82422-0.73438-1.5312-0.73438-0.92969 0-1.6484 0.38672-2.1562 1.1562-0.51172 0.76172-0.77344 1.8672-0.78125 3.3125v7.5156h-4.9219v-7.9844c0-1.6953-0.14844-2.7852-0.4375-3.2656-0.29297-0.48828-0.8125-0.73438-1.5625-0.73438-0.9375 0-1.6641 0.38672-2.1719 1.1562-0.51172 0.76172-0.76562 1.8594-0.76562 3.2969v7.5312h-4.9219v-15.312h4.9219v2.2344c0.60156-0.86328 1.2891-1.5156 2.0625-1.9531 0.78125-0.4375 1.6406-0.65625 2.5781-0.65625 1.0625 0 2 0.25781 2.8125 0.76562 0.8125 0.51172 1.4258 1.2305 1.8438 2.1562z"/>
  </symbol>
  <symbol id="p" overflow="visible">
   <path d="m17.75-9.3281v9.3281h-4.9219v-7.1094c0-1.3438-0.03125-2.2656-0.09375-2.7656s-0.16797-0.86719-0.3125-1.1094c-0.1875-0.3125-0.44922-0.55469-0.78125-0.73438-0.32422-0.17578-0.69531-0.26562-1.1094-0.26562-1.0234 0-1.8242 0.39844-2.4062 1.1875-0.58594 0.78125-0.875 1.8711-0.875 3.2656v7.5312h-4.8906v-21.281h4.8906v8.2031c0.73828-0.88281 1.5195-1.5391 2.3438-1.9688 0.83203-0.42578 1.75-0.64062 2.75-0.64062 1.7695 0 3.1133 0.54688 4.0312 1.6406 0.91406 1.0859 1.375 2.6562 1.375 4.7188z"/>
  </symbol>
  <symbol id="o" overflow="visible">
   <path d="m2.5781-20.406h5.875l7.4219 14v-14h4.9844v20.406h-5.875l-7.4219-14v14h-4.9844z"/>
  </symbol>
  <symbol id="n" overflow="visible">
   <path d="m2.1875-5.9688v-9.3438h4.9219v1.5312c0 0.83594-0.007813 1.875-0.015625 3.125-0.011719 1.25-0.015625 2.0859-0.015625 2.5 0 1.2422 0.03125 2.1328 0.09375 2.6719 0.070313 0.54297 0.17969 0.93359 0.32812 1.1719 0.20703 0.32422 0.47266 0.57422 0.79688 0.75 0.32031 0.16797 0.69141 0.25 1.1094 0.25 1.0195 0 1.8203-0.39062 2.4062-1.1719 0.58203-0.78125 0.875-1.8672 0.875-3.2656v-7.5625h4.8906v15.312h-4.8906v-2.2188c-0.74219 0.89844-1.5234 1.5586-2.3438 1.9844-0.82422 0.41406-1.7344 0.625-2.7344 0.625-1.7617 0-3.1055-0.53906-4.0312-1.625-0.92969-1.082-1.3906-2.6602-1.3906-4.7344z"/>
  </symbol>
  <symbol id="m" overflow="visible">
   <path d="m2.5781-20.406h8.7344c2.5938 0 4.582 0.57812 5.9688 1.7344 1.3945 1.1484 2.0938 2.7891 2.0938 4.9219 0 2.1367-0.69922 3.7812-2.0938 4.9375-1.3867 1.1562-3.375 1.7344-5.9688 1.7344h-3.4844v7.0781h-5.25zm5.25 3.8125v5.7031h2.9219c1.0195 0 1.8047-0.25 2.3594-0.75 0.5625-0.5 0.84375-1.2031 0.84375-2.1094 0-0.91406-0.28125-1.6172-0.84375-2.1094-0.55469-0.48828-1.3398-0.73438-2.3594-0.73438z"/>
  </symbol>
  <symbol id="l" overflow="visible">
   <path d="m2.3594-15.312h4.8906v15.031c0 2.0508-0.49609 3.6172-1.4844 4.7031-0.98047 1.082-2.4062 1.625-4.2812 1.625h-2.4219v-3.2188h0.85938c0.92578 0 1.5625-0.21094 1.9062-0.625 0.35156-0.41797 0.53125-1.2461 0.53125-2.4844zm0-5.9688h4.8906v4h-4.8906z"/>
  </symbol>
  <symbol id="k" overflow="visible">
   <path d="m14.719-14.828v3.9844c-0.65625-0.45703-1.3242-0.79688-2-1.0156-0.66797-0.21875-1.3594-0.32812-2.0781-0.32812-1.3672 0-2.4336 0.40234-3.2031 1.2031-0.76172 0.79297-1.1406 1.9062-1.1406 3.3438 0 1.4297 0.37891 2.543 1.1406 3.3438 0.76953 0.79297 1.8359 1.1875 3.2031 1.1875 0.75781 0 1.4844-0.10938 2.1719-0.32812 0.6875-0.22656 1.3203-0.56641 1.9062-1.0156v4c-0.76172 0.28125-1.5391 0.48828-2.3281 0.625-0.78125 0.14453-1.5742 0.21875-2.375 0.21875-2.7617 0-4.9219-0.70703-6.4844-2.125-1.5547-1.4141-2.3281-3.3828-2.3281-5.9062 0-2.5312 0.77344-4.5039 2.3281-5.9219 1.5625-1.4141 3.7227-2.125 6.4844-2.125 0.80078 0 1.5938 0.074219 2.375 0.21875 0.78125 0.13672 1.5547 0.35156 2.3281 0.64062z"/>
  </symbol>
 </defs>
 <g>
  <path d="m365.52 237-1.9141 0.93359c-0.25391 0.125-0.50391 0.25781-0.76172 0.37891 0.90625 0.69922 1.8086 1.4219 2.6992 2.1523l1.043-0.51563 0.35156 1.0469c1.1484 0.125 2.2969 0.25391 3.4336 0.40234-0.085938-0.24609-0.16406-0.51562-0.24609-0.76172l-0.6875-2.0117 1.9336-0.89062c0.59766-0.27344 1.2227-0.56641 1.8633-0.85156l2.5078-1.125 0.71875 2.6602c0.36328 1.3477 0.6875 2.7109 1.0195 4.0664 1.1211 0.19141 2.2344 0.37891 3.3477 0.59375-0.50391-2.1992-1.0352-4.3789-1.6289-6.5234l-0.55859-2.0117 1.9336-0.79687c6.1367-2.5195 12.398-4.7812 18.742-6.8359 0.37891-1.2109 0.73438-2.4297 1.0938-3.6445-6.9062 2.1719-13.691 4.5938-20.34 7.2969l-2.3359 0.95312-0.78906-2.3984c-0.011718-0.042969-0.035156-0.10156-0.050781-0.15234-0.95312 0.42969-1.9102 0.875-2.8633 1.3281 0.050781 0.15234 0.10156 0.28516 0.15234 0.4375l0.65625 2.0234-1.9414 0.85547c-0.74609 0.33203-1.4883 0.66016-2.2383 0.99609l-2.2773 1.0312-0.82031-2.1133c-0.92969 0.5-1.8594 1.0039-2.7812 1.5195z"/>
  <path d="m383.37 266.16c-0.50781-0.16797-1.0195-0.33594-1.5273-0.50391 0.33203 0.52734 0.64844 1.0586 0.97266 1.5859 0.18359-0.35938 0.375-0.72656 0.55469-1.082z"/>
  <path d="m325.96 230.32c-0.94531-0.45312-1.9023-0.89453-2.8633-1.3281-0.011718 0.042969-0.035156 0.089844-0.042968 0.13281l-0.78906 2.3984-2.3359-0.95312c-6.6523-2.7109-13.457-5.1367-20.371-7.3125 0.36328 1.2148 0.71094 2.4375 1.0938 3.6445 6.3555 2.0625 12.629 4.3242 18.777 6.8477l1.9336 0.79688-0.55859 2.0117c-0.59766 2.1445-1.125 4.3242-1.6289 6.5234 1.1094-0.20703 2.2227-0.40234 3.3438-0.59375 0.33203-1.3594 0.64844-2.7148 1.0195-4.0703l0.71875-2.6602 2.5156 1.125c0.64453 0.28516 1.2617 0.57812 1.8594 0.84375l1.9414 0.88672-0.69531 2.0156c-0.085937 0.24609-0.16797 0.51953-0.24609 0.76562 1.1367-0.14453 2.2852-0.27344 3.4336-0.39844l0.35156-1.0547 1.0195 0.50391c0.89453-0.72656 1.7969-1.4453 2.7031-2.1523-0.24609-0.11719-0.49219-0.25391-0.73438-0.37109l-1.9219-0.93359 0.72266-1.9375c-0.92578-0.51953-1.8477-1.0234-2.7773-1.5234l-0.79688 2.1094-2.2891-1.043c-0.74609-0.33594-1.4883-0.67188-2.2344-1.0039l-1.9414-0.86328 0.65625-2.0156c0.046875-0.11719 0.09375-0.24609 0.13672-0.39062z"/>
  <path d="m315.75 237.35c-4.375-1.7539-8.8047-3.3828-13.301-4.8984 1.5195 4.4922 3.1523 8.9258 4.8984 13.301 2.2461-0.58984 4.5078-1.125 6.7773-1.625 0.5-2.2773 1.0352-4.5273 1.625-6.7773z"/>
  <path d="m384.25 237.35c0.58203 2.2461 1.125 4.5078 1.625 6.7695 2.2578 0.49219 4.5078 1.0352 6.7461 1.6172 1.7461-4.3633 3.3828-8.793 4.8945-13.277-4.4844 1.5117-8.9023 3.1406-13.266 4.8906z"/>
  <path d="m321.39 247.46c-1.1016 0.20312-2.1992 0.41406-3.293 0.63672-0.21875 1.0938-0.4375 2.1914-0.63672 3.293 1.0859-0.23438 2.1836-0.44141 3.2773-0.64844 0.20312-1.0977 0.42188-2.1953 0.65234-3.2812z"/>
  <path d="m325.82 329.24-0.65625-2.0234 1.9414-0.85547c0.74609-0.33203 1.4961-0.66016 2.2383-1.0039l2.2891-1.0469 0.80469 2.1406c0.92969-0.5 1.8555-1.0039 2.7812-1.5195l-0.73438-1.9648 1.9141-0.93359c0.23437-0.11719 0.46875-0.24219 0.70703-0.35156-1.0938-0.84375-2.1797-1.7148-3.2539-2.5938-1.4102-0.14062-2.8164-0.30859-4.2188-0.48828 0.078126 0.23438 0.15625 0.5 0.23438 0.73438l0.69531 2.0234-1.9492 0.87891c-0.59766 0.27344-1.2148 0.56641-1.8633 0.85156l-2.5156 1.1211-0.71875-2.6562c-0.36328-1.3438-0.68359-2.6953-1.0078-4.043-1.1211-0.19141-2.2344-0.38672-3.3438-0.59375 0.50391 2.1914 1.0234 4.3555 1.625 6.4961l0.55469 2.0117-1.9336 0.79688c-6.1367 2.5195-12.402 4.7812-18.762 6.8359-0.37891 1.2148-0.72656 2.4375-1.0938 3.6445 6.9102-2.1797 13.703-4.5938 20.352-7.3008l2.3359-0.95312 0.78906 2.3906c0.015625 0.054687 0.039062 0.11328 0.054688 0.16406 0.95703-0.42969 1.9102-0.875 2.8672-1.3203-0.039063-0.15234-0.082031-0.29297-0.13281-0.44141z"/>
  <path d="m300.03 287.73c0.98438 0.40234 1.9766 0.80078 2.9609 1.1875 0.61719-1.0469 1.2148-2.0938 1.8633-3.1406l1.8477-2.9727 0.87891 1.2109c0.54688-1.0469 1.0938-2.1016 1.6562-3.1367l-0.62891-0.89453 0.60938-0.87891c-0.56641-1.043-1.1094-2.0898-1.6562-3.1367l-0.86328 1.1914-1.8477-2.9727c-0.64453-1.0352-1.2383-2.0703-1.8477-3.1016-0.98438 0.38672-1.9766 0.78516-2.9609 1.1797 1.2656 2.1719 2.5469 4.3281 3.9219 6.4336l0.83594 1.2812-0.83594 1.2812c-1.3672 2.1172-2.668 4.2852-3.9336 6.4688z"/>
  <path d="m276.52 225.1c-17.031-3.8594-34.688-6.0586-52.809-6.418-4.4727 0.98047-8.9023 2.1445-13.289 3.5 2.1172 4.0391 4.3945 7.9805 6.8438 11.805 13.074 12.582 27.145 23.52 41.938 32.844 8.2617-5.2656 17.008-9.8398 26.145-13.652-3.75-9.1328-6.7109-18.523-8.8281-28.078z"/>
  <path d="m288.69 153.7c0.35938 18.129 2.5586 35.789 6.418 52.82 9.5469 2.1172 18.938 5.0742 28.078 8.8359 3.8125-9.1445 8.3828-17.887 13.652-26.152-9.3242-14.789-20.254-28.852-32.84-41.934-3.8242-2.4453-7.7656-4.7266-11.809-6.8438-1.3594 4.375-2.5195 8.8047-3.5 13.273z"/>
  <path d="m376.81 215.34c9.1328-3.7578 18.52-6.7148 28.062-8.832 3.8633-17.07 6.0586-34.77 6.4102-52.941-0.96875-4.4297-2.1211-8.8086-3.4648-13.145-4.043 2.1172-7.9805 4.3945-11.805 6.8438-12.582 13.082-23.52 27.148-32.844 41.938 5.2578 8.2617 9.832 17 13.641 26.137z"/>
  <path d="m285.33 306.81c-9.1328-3.8125-17.871-8.3828-26.129-13.648-14.797 9.3203-28.855 20.254-41.934 32.832-2.4453 3.832-4.7266 7.7734-6.8477 11.809 4.3281 1.3438 8.7188 2.4961 13.137 3.4648 18.172-0.35156 35.875-2.543 52.949-6.418 2.1133-9.5273 5.0703-18.914 8.8242-28.039z"/>
  <path d="m295.83 302.47c-0.99609-0.35156-1.9805-0.72266-2.9688-1.0977-0.44922 0.95312-0.87891 1.9023-1.3047 2.8633 0.98047 0.37109 1.9727 0.73828 2.9609 1.0938 0.42578-0.95703 0.86328-1.9102 1.3125-2.8594z"/>
  <path d="m387.42 285.51-0.19141 0.25391-1.9336 1.5156c0.64453 1.2148 1.2617 2.4531 1.8828 3.6719 0.71875-0.90625 1.418-1.8203 2.1094-2.7383-0.52734-1.0312-1.0742-2.0391-1.6133-3.0586-0.089844 0.11719-0.16797 0.23828-0.25391 0.35547z"/>
  <path d="m423.5 334.87c17.047 3.8594 34.738 6.0586 52.887 6.4102 4.4336-0.97266 8.8242-2.1289 13.164-3.4766-2.1055-4.0195-4.375-7.9414-6.8047-11.75-13.094-12.602-27.172-23.547-41.977-32.879-8.25 5.2539-16.98 9.8242-26.105 13.629 3.7539 9.1328 6.7188 18.527 8.8359 28.066z"/>
  <path d="m411.27 406.38c-0.35156-18.148-2.5469-35.836-6.418-52.887-9.543-2.1172-18.93-5.0742-28.055-8.832-3.8086 9.1328-8.3789 17.859-13.637 26.105 9.3359 14.805 20.281 28.887 32.879 41.973 3.8086 2.4375 7.7344 4.6992 11.754 6.8086 1.3555-4.3359 2.5078-8.7305 3.4766-13.168z"/>
  <path d="m404.35 285.91c4.3438-1.8555 8.6523-3.8125 12.906-5.9062-4.2617-2.1016-8.5742-4.0586-12.926-5.9141-1.1367 1.9766-2.3242 3.9414-3.5547 5.8984 1.2461 1.957 2.4258 3.9375 3.5742 5.9219z"/>
  <path d="m404.14 257.53c0.99219 0.35156 1.9805 0.72266 2.9727 1.1016 0.44141-0.94531 0.87891-1.9023 1.3008-2.8555-0.98047-0.375-1.9727-0.73828-2.9609-1.0977-0.42578 0.95312-0.86328 1.9062-1.3125 2.8516z"/>
  <path d="m344.19 234.86 2.9688 1.8477-1.1875 0.86328c1.0469 0.54688 2.1016 1.0938 3.1367 1.6562l0.875-0.60937 0.89062 0.62109c1.043-0.56641 2.0938-1.1094 3.1406-1.6562l-1.2031-0.875 2.9727-1.8477c1.0469-0.64844 2.0938-1.2539 3.1406-1.8633-0.38672-0.99219-0.78906-1.9766-1.1875-2.9609-2.1836 1.2695-4.3516 2.5664-6.4688 3.9414l-1.2812 0.83594-1.2812-0.83594c-2.1055-1.3711-4.2617-2.6602-6.4336-3.9219-0.39844 0.98437-0.79688 1.9766-1.1797 2.9609 1.0234 0.60547 2.0625 1.1992 3.0977 1.8438z"/>
  <path d="m372.95 310.35c-0.085937 0.011719-0.16797 0.027344-0.24609 0.039063l-0.30859 0.050781-2.5859-0.3125c-0.41016 1.3203-0.82422 2.6484-1.2539 3.9648 1.1328-0.13281 2.2578-0.29297 3.3867-0.45312 0.34766-1.0938 0.67969-2.1992 1.0078-3.2891z"/>
  <path d="m327.03 249.66c0.089844-0.011718 0.16797-0.027343 0.25391-0.042968l0.32031-0.046875 2.5703 0.3125c0.41016-1.3203 0.82422-2.6484 1.2539-3.9648-1.1328 0.14062-2.2578 0.29297-3.3828 0.45312-0.34766 1.0898-0.67969 2.1914-1.0156 3.2891z"/>
  <path d="m320.73 309.27c-1.0977-0.20703-2.1914-0.42188-3.2773-0.64844 0.20312 1.1016 0.42188 2.1992 0.63672 3.293 1.0938 0.22266 2.1914 0.4375 3.293 0.63281-0.22656-1.0859-0.44141-2.1797-0.65234-3.2773z"/>
  <path d="m312.8 290.93c0.62109-1.2266 1.2383-2.4531 1.8828-3.668l-1.9141-1.5-0.18359-0.25391c-0.09375-0.12891-0.17969-0.25391-0.27344-0.37891-0.54297 1.0195-1.0859 2.0312-1.6172 3.0586 0.6875 0.92188 1.3906 1.8359 2.1055 2.7422z"/>
  <path d="m319.66 302.97c-0.011718-0.089844-0.027344-0.17188-0.042968-0.26172l-0.042969-0.32031 0.32031-2.5664c-1.3203-0.40234-2.6484-0.82422-3.9648-1.2539 0.14062 1.125 0.29297 2.2578 0.45312 3.3828 1.082 0.35156 2.1797 0.67578 3.2773 1.0195z"/>
  <path d="m312.3 274.85c0.09375-0.125 0.17188-0.24609 0.26172-0.37109l0.19141-0.25391 1.9219-1.5078c-0.63672-1.2148-1.2539-2.4453-1.8828-3.6719-0.71875 0.90625-1.4102 1.8203-2.1094 2.7383 0.52344 1.0273 1.0742 2.043 1.6172 3.0664z"/>
  <path d="m319.69 258.61-0.12109-1.0117 0.042969-0.3125c0.011719-0.089843 0.027344-0.16797 0.039063-0.25391-1.0977 0.33594-2.1953 0.66016-3.2891 1.0117-0.15625 1.125-0.3125 2.2578-0.45312 3.3867 1.3203-0.42969 2.6445-0.84375 3.9648-1.2539z"/>
  <path d="m381.85 294.34c0.50781-0.16406 1.0195-0.33594 1.5234-0.50391-0.17969-0.35156-0.37109-0.71875-0.55469-1.0742-0.32422 0.51953-0.64062 1.0586-0.96875 1.5781z"/>
  <path d="m397.5 327.5c-1.5117-4.4688-3.1367-8.8867-4.8789-13.238-2.2383 0.58203-4.4922 1.1211-6.7461 1.6172-0.49219 2.25-1.0312 4.5039-1.6133 6.7422 4.3555 1.7422 8.7695 3.3711 13.238 4.8789z"/>
  <path d="m382.54 308.62c-1.0859 0.23047-2.1797 0.44141-3.2695 0.64844-0.20703 1.0938-0.42578 2.1914-0.65625 3.2773 1.0977-0.19531 2.1953-0.41406 3.2891-0.63281 0.22266-1.0938 0.43359-2.1914 0.63672-3.293z"/>
  <path d="m412.86 347.12-1.4883-0.26953-0.37109-1.4688c-0.0625-0.25391-0.13281-0.51562-0.20703-0.77734-1.1641-0.3125-2.3203-0.64844-3.4766-0.97266l0.69531 2.5586-3.8398-0.90625c-8.332-1.9805-16.516-4.6719-24.5-7.9688-0.35938 0.99609-0.72656 1.9805-1.1016 2.9688 9.3594 3.8516 18.988 6.8594 28.777 8.9336l1.4688 0.3125 0.33984 1.4609c2.4883 10.691 4.3125 21.637 5.4609 32.781 0.29688-3.9023 0.45312-7.8164 0.45312-11.73 0-8.3203-0.71094-16.648-2.0234-24.891-0.078125-0.007813-0.12891-0.019532-0.1875-0.03125z"/>
  <path d="m344.82 317.68c-0.11328-0.089844-0.23047-0.16406-0.33984-0.25391l-0.25391-0.18359-1.5234-1.9492c-1.2148 0.64453-2.4531 1.2656-3.6797 1.8867 0.90625 0.71875 1.8203 1.418 2.7383 2.1094 1.0273-0.51953 2.043-1.0664 3.0586-1.6094z"/>
  <path d="m357.28 315.3-1.5195 1.9375-0.25391 0.18359c-0.11719 0.089843-0.23437 0.16797-0.35156 0.25781 1.0195 0.54297 2.0312 1.082 3.0586 1.6133 0.91797-0.69531 1.832-1.3945 2.7383-2.1094-1.2266-0.62891-2.457-1.2383-3.6719-1.8828z"/>
  <path d="m330.19 310.11-1.5742 0.19141-1.0117 0.12891-0.3125-0.050782c-0.085937-0.011718-0.15625-0.023437-0.24219-0.039062 0.33594 1.0977 0.66016 2.1953 1.0078 3.2891 1.1328 0.15625 2.2578 0.3125 3.3867 0.45312-0.42578-1.3203-0.84375-2.6484-1.2539-3.9727z"/>
  <path d="m369.82 249.88 1.5234-0.18359 1.0508-0.12891 0.3125 0.042969c0.089843 0.011719 0.17187 0.027344 0.25781 0.039063-0.33594-1.0977-0.66016-2.1953-1.0078-3.2891-1.1328-0.15625-2.2578-0.3125-3.3867-0.45312 0.42578 1.3242 0.83984 2.6445 1.25 3.9727z"/>
  <path d="m379.27 250.73c1.0977 0.20703 2.1914 0.42188 3.2773 0.64844-0.20312-1.1016-0.41406-2.1992-0.63672-3.293-1.0938-0.22266-2.1914-0.4375-3.293-0.63672 0.22656 1.0898 0.44141 2.1836 0.65234 3.2812z"/>
  <path d="m362.76 247.15c0.52734 0.33203 1.0586 0.64844 1.5859 0.98047-0.16797-0.50781-0.33594-1.0234-0.50391-1.5352-0.35938 0.18359-0.71875 0.375-1.082 0.55469z"/>
  <path d="m380.34 257.05c0.003906 0.085937 0.023437 0.15625 0.035156 0.23438l0.042969 0.30859-0.3125 2.5977c1.3203 0.41016 2.6484 0.82422 3.9648 1.2539-0.14062-1.1328-0.29297-2.2578-0.45312-3.3828-1.082-0.35156-2.1797-0.67578-3.2773-1.0117z"/>
  <path d="m380.3 301.35 0.125 1.0547-0.042969 0.3125c-0.011718 0.085937-0.027343 0.16406-0.039062 0.25391 1.0977-0.33984 2.1953-0.66016 3.2891-1.0117 0.16406-1.1328 0.3125-2.2578 0.45313-3.3867-1.3203 0.42969-2.6445 0.84375-3.9648 1.2617z"/>
  <path d="m342.9 248.41 0.33984 0.56641c-1.1406 0.6875-2.2695 1.3945-3.3984 2.0938l0.875 0.10547-1.8359 0.48828c-2.043 1.2812-4.0781 2.582-6.0859 3.9219l-5.3828 3.5742 1.418-4.8281c-1.1484 0.30859-2.3203 0.64844-3.5 0.99609-0.35938 1.2148-0.71094 2.418-1.0234 3.6016l-0.67578 2.5586 1.9609 1.3047c-1.3398 2.0117-2.6445 4.043-3.9258 6.0938l-0.48828 1.8477-0.10547-0.87891c-0.69922 1.125-1.4062 2.25-2.0898 3.3867l-0.39844 0.67188 0.023438 0.16797c0.29297 1.832 0.59766 3.6562 0.92969 5.4805l0.078125 0.41406-0.078125 0.41016c-0.33203 1.832-0.63672 3.668-0.93359 5.5039l-0.027343 0.17969 0.41016 0.68359c0.68359 1.1367 1.3945 2.2617 2.0938 3.3867l0.11328-0.88672 0.49219 1.8711c1.2812 2.0391 2.5742 4.0703 3.9102 6.0703l-1.9492 1.3008 0.67188 2.5195c0.32031 1.1992 0.67578 2.418 1.0352 3.6445 1.1797 0.34766 2.3516 0.6875 3.5 0.99609l-1.4297-4.8594 5.3867 3.5859c2.0391 1.3555 4.1055 2.6758 6.1836 3.9766l1.7188 0.45312-0.81641 0.10547c1.1133 0.6875 2.2227 1.3906 3.3477 2.0625l0.71094 0.42969 0.125-0.023437c1.832-0.29688 3.6562-0.59766 5.4805-0.92969l0.41406-0.074219 0.42188 0.074219c1.832 0.33203 3.6641 0.63672 5.4922 0.92969l1.2266 0.19531-0.35938-0.60547c1.1133-0.66797 2.2188-1.3555 3.3164-2.0391l-0.86328-0.10547 1.8203-0.48828c2.0781-1.293 4.1367-2.6133 6.1758-3.9688l5.3828-3.5781-1.4297 4.8477c1.1523-0.30859 2.3203-0.64844 3.5039-0.99609 0.35938-1.2305 0.71094-2.4453 1.0312-3.6328l0.66797-2.4922-0.003906-0.035156-1.9609-1.3008c1.3477-2.0273 2.6641-4.082 3.9609-6.1484l0.48828-1.8359 0.10547 0.86719c0.6875-1.1016 1.3789-2.2109 2.0508-3.3281l0.42969-0.72266-0.023438-0.14453c-0.29297-1.832-0.59766-3.668-0.92969-5.5l-0.078124-0.41406 0.078124-0.41406c0.32422-1.832 0.63281-3.6562 0.92578-5.4883l0.023437-0.125-0.42578-0.70703c-0.67188-1.1133-1.3594-2.2188-2.043-3.3203l-0.11719 0.85156-0.46484-1.7578c-1.3047-2.082-2.6328-4.1562-3.9883-6.1992l1.9609-1.3008 0.015625-0.054687-0.67188-2.5078c-0.3125-1.1758-0.66016-2.375-1.0195-3.5898-1.2305-0.35937-2.4531-0.71875-3.6523-1.0352l-2.5195-0.67188-1.293 1.9531c-2.0117-1.332-4.0391-2.6328-6.082-3.9141l-1.9141-0.50781 0.91406-0.11328c-1.1211-0.69531-2.2344-1.3945-3.3672-2.0703l-0.67578-0.41016-0.18359 0.027344c-1.8359 0.29297-3.668 0.59766-5.5 0.92969l-0.41406 0.074219-0.41406-0.074219c-1.8242-0.33203-3.6523-0.63672-5.4805-0.92969z"/>
  <path d="m335.65 248.13c0.51953-0.33203 1.0586-0.64844 1.5859-0.97266-0.35938-0.18359-0.72266-0.37109-1.0859-0.55469-0.16406 0.50391-0.33203 1.0195-0.5 1.5273z"/>
  <path d="m362.76 312.82c0.35938 0.18359 0.71875 0.37109 1.082 0.55469 0.16797-0.50781 0.33594-1.0195 0.50391-1.5273-0.52734 0.32812-1.0625 0.64844-1.5859 0.97266z"/>
  <path d="m318.13 294.35c-0.33203-0.52734-0.64844-1.0547-0.98047-1.5859-0.18359 0.35938-0.37109 0.72266-0.55469 1.082 0.51562 0.16797 1.0273 0.33594 1.5352 0.50391z"/>
  <path d="m318.14 265.65c-0.51562 0.16406-1.0234 0.33594-1.5352 0.50391 0.18359 0.36328 0.37109 0.72266 0.55469 1.0859 0.32422-0.52344 0.64453-1.0625 0.98047-1.5898z"/>
  <path d="m337.24 312.82c-0.52734-0.33203-1.0586-0.64453-1.5781-0.97266 0.16406 0.50781 0.33594 1.0195 0.5 1.5234 0.35938-0.17578 0.71875-0.36719 1.0781-0.55078z"/>
  <path d="m414.64 253.19c9.1406 3.8086 17.871 8.3789 26.129 13.641 14.805-9.3359 28.887-20.281 41.977-32.883 2.4297-3.8086 4.6914-7.7344 6.8047-11.754-4.3867-1.3594-8.832-2.5273-13.305-3.5039-18.105 0.36328-35.758 2.5586-52.762 6.418-2.1172 9.5508-5.082 18.941-8.8438 28.082z"/>
  <path d="m169.84 84.336c0.003906-0.011719 0.023437-0.015626 0.027343-0.027344l0.39062-0.36328 0.015625-0.015624c0.41016-0.375 0.80469-0.71875 1.1758-1.0547 0.60938-0.55859 1.2422-1.1328 1.8828-1.707-1.293 1.1484-2.5703 2.3086-3.8398 3.4844 0.12891-0.12109 0.24609-0.22656 0.34766-0.31641z"/>
  <path d="m152.59 101.76c0.027344-0.027343 0.054688-0.0625 0.085938-0.09375 0.41016-0.45312 0.81641-0.92969 1.2695-1.4219l0.015625-0.011719 0.23047-0.24219 0.3125-0.33594 0.20703-0.23047c-1.2852 1.3789-2.5469 2.7773-3.793 4.1836 0.57031-0.63672 1.1289-1.25 1.6719-1.8477z"/>
  <path d="m158.73 98.582 1.7031 1.625-0.003906 0.003907c-0.050782 0.050781-0.085938 0.085937-0.12891 0.12891-0.13281 0.13281-0.26172 0.26953-0.375 0.39062l-0.015625 0.015625s-0.003906 0.003906-0.003906 0.011718c-0.64844 0.6875-1.293 1.3828-1.9375 2.0703-0.62109 0.67188-1.2422 1.3711-1.875 2.0781-0.72656 0.80469-1.4453 1.5977-2.1406 2.3867-0.24609 0.28125-0.5 0.57031-0.76172 0.86328-1.0234 1.1719-2.0312 2.3516-3.0352 3.543l-0.015625 0.023437s0 0.003906-0.003906 0.003906v0.003907c-0.62891 0.73828-1.25 1.4961-1.875 2.2578-0.011719 0.015625-0.023438 0.027344-0.035157 0.042969-0.51562 0.62891-1.0234 1.2617-1.5352 1.8867 0.78906 2.8164 1.6289 5.6289 2.5156 8.4297 10.859-4.8047 22.305-8.5 34.199-10.977 2.4766-11.895 6.1758-23.348 10.977-34.199-2.8008-0.88672-5.6094-1.7305-8.4336-2.5156-0.59375 0.48047-1.1914 0.96484-1.7852 1.4492 0 0.003906-0.003906 0.003906-0.011718 0.011719 0 0-0.003906 0.003906-0.011719 0.003906l-0.003906 0.003906c-0.015625 0.011719-0.027344 0.023438-0.050781 0.039062-0.64453 0.53906-1.2812 1.0625-1.9023 1.5898l-0.003906 0.003906c-0.19531 0.16406-0.40234 0.33984-0.62109 0.51953-0.011719 0.011718-0.015625 0.015625-0.035156 0.027344-1.0469 0.88672-2.0898 1.7734-3.1211 2.6758-0.015625 0.011719-0.023438 0.015625-0.035156 0.027343-0.44141 0.39063-0.87891 0.77734-1.3086 1.1602-0.77734 0.6875-1.5586 1.3945-2.3477 2.1016-0.023438 0.023438-0.050782 0.042969-0.078126 0.066407v0.003906c-0.52734 0.46875-1.043 0.93359-1.5391 1.3945-0.84375 0.78516-1.6875 1.5664-2.5273 2.3594-1.1641 1.1016-2.3242 2.2227-3.4766 3.3555-0.65625 0.64453-1.3086 1.2891-1.9648 1.9375-0.50781 0.51953-1.0117 1.0312-1.5195 1.5352-1.0547 1.0703-2.1016 2.1602-3.1406 3.2578l-1.7344-1.5977-0.050781-0.042969z"/>
  <path d="m174.84 79.832c0.17187-0.15234 0.30859-0.25781 0.41016-0.35156l0.003906-0.003907c0.35938-0.32031 0.73438-0.66016 1.1328-1.0039-0.73437 0.63281-1.4492 1.2773-2.1797 1.9141 0.21484-0.18359 0.42188-0.36719 0.63281-0.55469z"/>
  <path d="m178.46 76.73 0.011719-0.011719c0.16797-0.14062 0.37109-0.32422 0.62109-0.53125l-0.011719 0.011719c0.44922-0.37891 0.90625-0.76562 1.3789-1.1484l-0.003906 0.003907c0.23438-0.19531 0.44922-0.36328 0.64453-0.51953 0.003906-0.003906 0.015625-0.015625 0.027344-0.023437 0 0 0.003906-0.003907 0.011719-0.003907 0 0 0.011719-0.003906 0.011719-0.011718 0.33203-0.27344 0.67578-0.57812 1.0547-0.875-1.6367 1.332-3.2578 2.6836-4.8672 4.0547 0.37891-0.32812 0.76172-0.64844 1.1211-0.94531z"/>
  <path d="m184.32 71.922 0.54688-0.4375c0.52734-0.41406 1.0547-0.83984 1.5781-1.25 0.90625-0.70703 1.8203-1.418 2.7422-2.1172 1.1914-0.91406 2.3984-1.8086 3.6133-2.6992-3.1797 2.3359-6.3047 4.7383-9.3789 7.2109 0.29688-0.23828 0.60156-0.47266 0.89844-0.70703z"/>
  <path d="m135.48 122.72-0.011718 0.023438z"/>
  <path d="m131.33 128.54c0.59766-0.86719 1.2109-1.7305 1.8203-2.582 0.44141-0.62109 0.89453-1.2617 1.3555-1.8945-1.4062 1.9414-2.793 3.8984-4.1484 5.8789 0.32031-0.47266 0.65234-0.94531 0.97266-1.4023z"/>
  <path d="m195.78 63.273c0.96484-0.6875 1.9336-1.3711 2.9102-2.0547-1.5781 1.0938-3.1484 2.207-4.6992 3.332 0.60156-0.42969 1.1992-0.85547 1.7891-1.2773z"/>
  <path d="m144.57 111.05c0.011719-0.011719 0.023438-0.027344 0.035157-0.039063h0.003906c0.16406-0.20703 0.35156-0.44141 0.57031-0.69922 0.29687-0.35938 0.59375-0.72266 0.90234-1.082 0.16797-0.20312 0.32031-0.36328 0.42969-0.5l0.20703-0.25391 0.023438-0.027344c0.20312-0.23437 0.42578-0.50781 0.66016-0.78906-1.2812 1.5078-2.5547 3.0234-3.8008 4.5586 0.33594-0.41016 0.66406-0.79688 0.96875-1.168z"/>
  <path d="m408.8 210.46-1.4688 0.30859c-9.7891 2.0781-19.414 5.0781-28.777 8.9336 0.375 0.99219 0.74609 1.9805 1.1016 2.9727 7.9922-3.2969 16.172-5.9922 24.5-7.9688l3.8398-0.91406-0.68359 2.5195c1.1602-0.32422 2.3125-0.66016 3.4766-0.96875 0.074219-0.25391 0.14063-0.50391 0.20313-0.73828l0.375-1.4688 1.4844-0.26953c0.054688-0.003906 0.10156-0.015625 0.15234-0.023438 1.3164-8.2891 2.0312-16.648 2.0312-25.004 0-3.8789-0.15625-7.7656-0.44922-11.641-1.1484 11.148-2.9688 22.102-5.4609 32.801z"/>
  <path d="m138.05 119.29c0.76172-1.0039 1.5273-2 2.3125-2.9922h-0.003906c0.71094-0.91406 1.4336-1.8242 2.168-2.7383-2.4062 2.9961-4.7539 6.0469-7.0352 9.1523 0.83984-1.1406 1.6875-2.2852 2.5586-3.4219z"/>
  <path d="m371.84 542.38-0.16797-2.0117c2.0117-0.16797 4.0312-0.36328 6.0547-0.58203 1.4375-2.5547 2.8281-5.1523 4.1875-7.7773-11.059-4.2852-21.762-9.75-31.91-16.414-10.164 6.6641-20.883 12.141-31.949 16.426 1.3555 2.6211 2.7422 5.2148 4.1836 7.7656 9.2461 0.98438 18.531 1.4961 27.816 1.4961 4.5625-0.003906 9.1289-0.12891 13.691-0.37109 0 0 0.011718-0.003906 0.015625-0.003906 0.27344-0.011719 0.50391-0.015625 0.67578-0.027344 2.1211-0.11719 4.25-0.26953 6.3828-0.4375 0.32031-0.027344 0.60547-0.042969 0.84375-0.066406z"/>
  <path d="m205.02 56.965c-1.5 0.98047-3 1.9648-4.4805 2.9727 1.4922-1.0078 2.9844-1.9961 4.4805-2.9727z"/>
  <path d="m176.8 81.219-0.023437-0.03125 0.039062 0.046875z"/>
  <path d="m270.32 117.76c-22.152-16.32-46.285-28.684-71.469-37.117-4.5039 10.098-8.0195 20.727-10.457 31.762 0.53906-0.09375 1.0742-0.18359 1.6133-0.27344 7.875-1.3203 15.922-2.1211 24.129-2.3281 1.3906-0.035156 2.7773-0.050781 4.1719-0.050781h0.13672c18.078 0 35.504 2.8164 51.875 8.0078z"/>
  <path d="m182.65 76.352-0.019532-0.035156 0.019532 0.035156 0.035156 0.039063z"/>
  <path d="m414.96 436.7-0.085938-0.074218c-3.1016 33.066-12.281 64.359-26.383 92.785 6.4102 2.25 12.926 4.1289 19.516 5.5781l10.051 2.207c23.309-6.1562 45.359-15.383 65.699-27.238l5.5156-8.6172c3.6406-5.6836 6.9141-11.609 9.8555-17.73-30.027-10.121-58.609-25.742-84.168-46.91z"/>
  <path d="m129.93 130.56c-0.95312 1.3984-1.8867 2.8242-2.8164 4.2461 0.92188-1.418 1.8594-2.8359 2.8164-4.2461z"/>
  <path d="m126.84 135.21c-0.81641 1.2617-1.6289 2.5312-2.4258 3.8086l0.98047-1.5586c0.21094-0.33203 0.42969-0.69922 0.68359-1.0859l-0.003906 0.003906c0.26562-0.42188 0.51562-0.79688 0.76562-1.168z"/>
  <path d="m179.75 148.44c0-10.254 0.92969-20.281 2.6602-30.031-11.039 2.4375-21.668 5.9531-31.762 10.457 8.4297 25.184 20.797 49.312 37.117 71.473-5.1953-16.383-8.0156-33.812-8.0156-51.898z"/>
  <path d="m207.45 55.406 0.76563-0.48828c-0.61719 0.39062-1.2422 0.77344-1.8594 1.1719 0.40625-0.26172 0.78125-0.48047 1.0938-0.68359z"/>
  <path d="m151.45 106.6-0.019531-0.019531-0.03125-0.019531 0.019531 0.007812z"/>
  <path d="m198.51 67.105c-0.64844 0.46484-1.293 0.92578-1.9258 1.3828h0.003907c-0.30859 0.22266-0.62109 0.45312-0.92969 0.67578-1.2109 0.89063-2.418 1.793-3.6172 2.7031-0.51953 0.39844-1.0469 0.80469-1.5664 1.2109 1.9648 0.57812 3.9258 1.1758 5.875 1.7969 1.5898-3.3281 3.2695-6.6016 5.0586-9.8047-0.97266 0.66406-1.9336 1.3438-2.8984 2.0352z"/>
  <path d="m143.07 120.47c-0.42578 0.55859-0.86328 1.1094-1.2891 1.668-0.84375 1.1133-1.6914 2.2383-2.5195 3.375-0.26953 0.35938-0.53125 0.72266-0.80078 1.0938-0.49219 0.67578-0.98047 1.3711-1.4883 2.0781-0.60547 0.85156-1.2031 1.6953-1.7852 2.543l-0.003906 0.003907c-0.039062 0.054687-0.078125 0.11328-0.11719 0.16797 3.2031-1.7852 6.4727-3.4727 9.8008-5.0586-0.61328-1.9453-1.2188-3.9062-1.7969-5.8711z"/>
  <path d="m149.65 105.05c0.003906-0.003907 0.011718-0.011719 0.015624-0.015626 0-0.003906 0.003907-0.003906 0.011719-0.011718l0.28516-0.33203 0.003906-0.003906c0.14453-0.17188 0.30078-0.35156 0.46094-0.51953-0.64453 0.72656-1.293 1.4492-1.9258 2.1914 0.38672-0.46094 0.77734-0.89453 1.1484-1.3086z"/>
  <path d="m383.57 21.09c0.94141 1.7344 1.8633 3.4844 2.7734 5.2344 3.3164-1.1797 6.6602-2.2695 10.023-3.2383-4.25-0.76563-8.5156-1.4297-12.797-1.9961z"/>
  <path d="m223.26 213.97c11.387-2.4531 22.977-3.7188 34.586-3.7188 8.1328 0 16.238 0.67188 24.281 1.875-1.2109-8.0469-1.875-16.16-1.875-24.293 0-11.609 1.2656-23.199 3.7188-34.586-0.027344-1.5781-0.066406-3.168-0.066406-4.8008 0-6.8359 0.29297-13.613 0.80078-20.316l-2.0312-0.84375c-19.746-8.25-41.402-12.82-64.121-12.828h-0.10547c-10.625 0-20.996 1.0312-31.062 2.9297-1.8984 10.062-2.9219 20.434-2.9219 31.051 0 22.766 4.5703 44.453 12.828 64.227l0.84375 2.0312c6.707-0.50781 13.484-0.79687 20.324-0.79687 1.6172 0.003906 3.2188 0.042968 4.8008 0.070312z"/>
  <path d="m309.25 134.69c0.95312 0.94531 1.8633 1.8984 2.7773 2.832 8.3477 5.4414 16.199 11.582 23.453 18.355 5.1523 4.8086 9.9922 9.957 14.52 15.367 4.5312-5.4102 9.3633-10.555 14.52-15.371 7.2539-6.7695 15.109-12.914 23.457-18.355 0.90625-0.94141 1.8242-1.8867 2.7734-2.8281 3.6016-3.6016 7.2969-7.043 11.039-10.395-7.7266-17.73-18.801-34.34-33.309-48.848-5.8359-5.8281-12.023-11.07-18.473-15.805-6.4531 4.7305-12.652 9.9727-18.48 15.805-14.508 14.508-25.582 31.121-33.309 48.844 3.7344 3.3516 7.4297 6.7969 11.031 10.398z"/>
  <path d="m313.62 26.312c0.90234-1.7461 1.8203-3.4883 2.7617-5.2148-4.2617 0.55859-8.5195 1.2266-12.746 1.9883 3.3555 0.97266 6.6836 2.0508 9.9844 3.2266z"/>
  <path d="m288.98 135.04 0.4375-1.3203 2.4375 1.2266c5.1367 2.582 10.125 5.4219 14.934 8.5117l0.23047 0.14453 0.19531 0.20313c13.242 13.742 24.711 28.555 34.422 44.152l0.78906 1.2695-0.82031 1.25c-5.4727 8.4102-10.188 17.355-14.09 26.723 0.96484 0.42578 1.9219 0.86328 2.8789 1.3047 3.332-8.0078 7.2344-15.707 11.742-23.016l2.0664-3.3555 1.9766 3.4102c0.46484 0.80469 0.93359 1.6172 1.3984 2.4453l0.63672 1.1328-0.62109 1.1406c-3.8242 7.0625-7.2812 14.273-10.422 21.59 0.92969 0.48047 1.8594 0.97266 2.7773 1.4766 2.4531-5.7188 5.0859-11.375 7.9648-16.953l2.0898-4.0352 2.0898 4.0469c2.8711 5.5664 5.5039 11.219 7.9531 16.93 0.92578-0.50391 1.8477-0.99609 2.7773-1.4766-3.1406-7.3086-6.5977-14.508-10.414-21.57l-0.61719-1.1406 0.63672-1.1328c0.46484-0.82422 0.94141-1.6406 1.3984-2.4453l1.9727-3.4102 2.0703 3.3555c4.4961 7.2969 8.4062 14.996 11.73 22.992 0.95703-0.44141 1.9141-0.87891 2.8789-1.3047-3.8984-9.3633-8.6133-18.301-14.074-26.707l-0.81641-1.2539 0.79687-1.2695c9.7031-15.598 21.18-30.406 34.422-44.152l0.19531-0.20312 0.23047-0.14453c4.8086-3.0898 9.793-5.9297 14.93-8.5078l2.4297-1.2266 0.39844 1.2031c-0.085937-1.6289-0.17969-3.2539-0.29688-4.8711l-7.9023 3.3047 7.6719-6.3633c-2.7617-33.852-11.984-65.844-26.426-94.809-11.363 4.3672-22.348 10-32.727 16.941l-1.3086 0.88672-1.3047-0.87891c-10.387-6.9492-21.391-12.59-32.766-16.957-14.438 28.957-23.664 60.938-26.426 94.793l7.7227 6.4023-7.9531-3.3281c-0.11328 1.6641-0.21094 3.3281-0.29688 4.9961zm53.504 48.391c-1.6445-2.5703-3.3555-5.1289-5.1016-7.668l3.7031-2.8945c2.0039 2.2734 3.9531 4.6016 5.8359 6.9844l-0.76172 0.60547c0.089844 0.14453 0.19141 0.28516 0.28516 0.42969l-1.043 0.66797 1.5664 1.1523c-0.19141 0.25391-0.38672 0.53125-0.60547 0.83594l-2.0273 2.7773zm9.5508 8.9531-2.0312 3.4648-2.0312-3.4648c-0.33594-0.57812-0.69531-1.1641-1.0547-1.7695l-0.77344-1.293 0.85547-1.2422c0.35938-0.51953 0.71875-1.0352 1.0859-1.5508l1.918-2.7148 1.9141 2.6992c0.36328 0.51562 0.72656 1.0352 1.0859 1.5469l-1.3906 0.95703 0.30078 0.21875c-0.0625 0.089844-0.125 0.17969-0.18359 0.26172 0.089844 0.15625 0.17969 0.30078 0.27344 0.46484l1.0742 0.64453c-0.35156 0.61328-0.70703 1.1992-1.043 1.7773zm5.4883-8.9531-1.8594 2.9023-2.0234-2.7812c-0.21875-0.29688-0.42188-0.58203-0.60938-0.83984l-1.0586-1.4492 1.1133-1.3984c1.8867-2.3867 3.8359-4.7227 5.8516-7l1.7578 1.5586 1.9336 1.332c-1.7461 2.5352-3.4531 5.0938-5.1055 7.6758zm-63.711-56.781-1.2695-1.1211 0.66016-1.5586c7.9805-18.84 19.641-36.488 34.996-51.84 6.4336-6.4414 13.281-12.195 20.434-17.332l1.3711-0.98828 1.3711 0.98438c7.1445 5.1367 13.996 10.891 20.43 17.328 15.348 15.355 27.016 33.008 34.996 51.844l0.66016 1.5586-1.2695 1.125c-4.1211 3.6523-8.1719 7.4297-12.113 11.367-0.96875 0.96875-1.9258 1.9531-2.8906 2.9531l-0.19141 0.19141-0.21875 0.14062c-8.2148 5.3359-15.926 11.363-23.051 18.016-5.6914 5.3086-11.004 11.016-15.902 17.07l-1.8203 2.2656-1.832-2.2578c-4.8984-6.0547-10.215-11.762-15.898-17.07-7.125-6.6523-14.836-12.68-23.043-18.016l-0.22266-0.14062-0.18359-0.19141c-0.96875-1.0039-1.9258-1.9922-2.8945-2.9609-3.9414-3.9336-7.9883-7.7148-12.117-11.367z"/>
  <path d="m350 44.375c10.148-6.6523 20.844-12.117 31.898-16.402-1.3281-2.5586-2.6836-5.0898-4.082-7.5898-9.2461-1.0195-18.531-1.5781-27.816-1.6523-9.3008 0.074219-18.602 0.63672-27.859 1.6641-1.3984 2.4883-2.75 5.0195-4.0781 7.5703 11.07 4.2812 21.777 9.7461 31.938 16.41z"/>
  <path d="m610.38 258.55v-0.011719l2.0117-0.16797 0.15625-0.011719-2.168 0.17188-0.011718-0.12891c-0.16797-2.0547-0.375-4.1094-0.59375-6.1719-2.5547-1.4375-5.1406-2.8242-7.7617-4.1758-4.2891 11.07-9.7617 21.785-16.426 31.941 6.6602 10.152 12.129 20.855 16.414 31.91 2.6211-1.3555 5.2188-2.75 7.7773-4.1875 0.21875-2.0312 0.42188-4.0703 0.58203-6.0977 0.023438-0.26953 0.039063-0.55859 0.066407-0.87891l2.0117 0.15234-2.0117-0.15234v-0.003906c0.16797-2.1406 0.32422-4.2656 0.4375-6.3945l0.011718-0.23438 2.3086 0.10547-0.42578-0.023438-1.875-0.10547c0.25781-4.7109 0.38672-9.4297 0.38672-14.141 0-4.7617-0.14063-9.5156-0.40234-14.27l-0.003906-0.16406 2.3477-0.13281-2.3477 0.12891c-0.13281-2.3086-0.29297-4.6406-0.48438-6.957z"/>
  <path d="m597.78 314.05c-4.3672-11.367-10.008-22.359-16.953-32.742l-0.87109-1.3047 0.875-1.3047c6.957-10.387 12.594-21.398 16.969-32.777-28.965-14.438-60.945-23.656-94.797-26.414l-6.3516 7.668 3.293-7.8945c-1.6758-0.11719-3.3555-0.21875-5.0352-0.30078l1.3477 0.44922-1.2227 2.4375c-2.5703 5.1172-5.3945 10.078-8.4727 14.875l-0.14453 0.23438-0.20312 0.19141c-13.754 13.262-28.578 24.746-44.191 34.469l-1.2773 0.78906-1.2539-0.81641c-8.4062-5.4648-17.344-10.176-26.699-14.078-0.42969 0.96484-0.86328 1.9219-1.3086 2.8789 7.9961 3.3281 15.691 7.2344 22.992 11.738l3.3594 2.0703-3.4219 1.9727c-0.80469 0.46484-1.625 0.93359-2.457 1.4062l-1.1328 0.63281-1.1406-0.61719c-7.0547-3.8203-14.254-7.2695-21.555-10.41-0.48047 0.92969-0.98047 1.8594-1.4766 2.7812 5.707 2.4414 11.352 5.0742 16.918 7.9414l4.0586 2.0781-4.0547 2.0938c-5.5625 2.8672-11.199 5.4922-16.902 7.9336 0.50391 0.91797 0.99609 1.8477 1.4844 2.7773 7.2969-3.1406 14.488-6.5898 21.531-10.406l1.1406-0.61719 1.1328 0.63672c0.83594 0.46875 1.6523 0.94531 2.457 1.4102l3.4102 1.9727-3.3555 2.0664c-7.293 4.4961-14.98 8.3984-22.977 11.727 0.44922 0.95703 0.88672 1.9141 1.3086 2.8789 9.3516-3.8984 18.277-8.6055 26.68-14.066l1.2539-0.81641 1.2695 0.78906c15.613 9.7148 30.441 21.207 44.195 34.469l0.19531 0.19141 0.14453 0.23047c3.0742 4.793 5.9023 9.7617 8.4727 14.867l1.2266 2.4414-1.2383 0.40234c1.6406-0.085938 3.2773-0.17969 4.9102-0.29688l-3.2773-7.8516 6.3164 7.6211c33.875-2.7461 65.871-11.969 94.828-26.406zm-154.31-32.133c-0.52734 0.37109-1.0469 0.73438-1.5625 1.0938l-1.2422 0.86328-1.3008-0.77734c-0.60938-0.37109-1.2109-0.72656-1.7852-1.0703l-3.4727-2.0312 3.4766-2.0273c0.57812-0.33594 1.1641-0.69922 1.7812-1.0625l1.3008-0.77734 1.2422 0.86328c0.51562 0.35938 1.0352 0.72266 1.5625 1.0938l-1.3594 1.918zm3.082-9.4453c2.6094-1.668 5.2031-3.3984 7.7656-5.1758l1.332 1.9375 1.5625 1.7578c-2.3008 2.043-4.6641 4.0156-7.0859 5.9258l-1.3984 1.1094-1.4453-1.0547c-0.26953-0.20312-0.55469-0.40234-0.84375-0.61719l-2.8008-2.0234zm7.7656 20.238c-2.5703-1.7695-5.1562-3.5-7.7656-5.1758l1.2656-1.9805-1.3828-1.9023c0.30078-0.21875 0.58203-0.42188 0.84375-0.61719l1.4453-1.0547 1.3984 1.1094c2.4141 1.9102 4.7812 3.8789 7.0859 5.9258zm37.625 31.371c-0.95312-0.95312-1.9258-1.8945-2.9062-2.8438l-0.19141-0.18359-0.14453-0.22266c-5.3477-8.2383-11.395-15.977-18.066-23.117-5.3047-5.6797-11-10.988-17.047-15.875l-2.2539-1.8359 2.2578-1.832c6.0547-4.8945 11.75-10.203 17.047-15.883 6.668-7.1406 12.719-14.879 18.066-23.109l0.14062-0.22266 0.19531-0.18359c0.98047-0.95312 1.9531-1.8945 2.9062-2.8438 3.9375-3.9414 7.7188-7.9844 11.367-12.113l1.1211-1.2656 1.5586 0.66016c18.84 7.9727 36.496 19.633 51.844 34.996 6.4336 6.4336 12.195 13.281 17.332 20.43l0.98438 1.3672-0.98438 1.3711c-5.1367 7.1445-10.891 14-17.332 20.43-15.355 15.355-33.008 27.016-51.844 34.988l-1.5586 0.66016-1.1211-1.2656c-3.6523-4.1211-7.4336-8.168-11.371-12.105z"/>
  <path d="m287.11 212.89 1.4961 0.26953 0.37109 1.4727c0.0625 0.23047 0.125 0.46875 0.19531 0.71875 1.1641 0.30859 2.3242 0.64453 3.4844 0.96875l-0.67188-2.5039 3.8359 0.91406c8.3398 1.9805 16.531 4.6758 24.516 7.9805 0.35938-0.99609 0.72656-1.9883 1.1094-2.9805-9.3672-3.8516-19.008-6.8594-28.801-8.9375l-1.4609-0.30859-0.33984-1.457c-2.4805-10.645-4.2969-21.543-5.4492-32.633-0.28125 3.8086-0.42969 7.6289-0.42969 11.445 0 8.3711 0.71875 16.738 2.0391 25.031 0.027344 0 0.066407 0.007812 0.10547 0.019531z"/>
  <path d="m291.18 349.52 1.4609-0.3125c9.793-2.0781 19.434-5.0781 28.801-8.9375-0.375-0.99219-0.75-1.9805-1.1094-2.9727-7.9922 3.2969-16.18 5.9922-24.516 7.9727l-3.8359 0.91406 0.68359-2.5352c-1.1641 0.32422-2.3125 0.66016-3.4844 0.96875-0.066406 0.25781-0.14062 0.51562-0.20312 0.75781l-0.37109 1.4727-1.4961 0.26953c-0.050781 0.003906-0.089844 0.011718-0.13281 0.023437-1.3086 8.2539-2.0234 16.582-2.0234 24.91 0 3.8516 0.15625 7.707 0.4375 11.555 1.1523-11.09 2.9688-21.98 5.4492-32.621z"/>
  <path d="m410.99 425.02-0.41016 1.2305-2.4375-1.2266c-5.1133-2.5703-10.074-5.3984-14.867-8.4766l-0.23438-0.14453-0.19141-0.19531c-13.262-13.746-24.754-28.578-34.469-44.191l-0.78906-1.2773 0.81641-1.2539c5.4609-8.3984 10.164-17.332 14.066-26.684-0.96484-0.42188-1.9219-0.85547-2.8789-1.3047-3.3203 7.9922-7.2305 15.68-11.727 22.977l-2.0703 3.3672-1.9727-3.4219c-0.46484-0.8125-0.93359-1.625-1.4062-2.4531l-0.63672-1.1367 0.61719-1.1367c3.8125-7.0508 7.2617-14.242 10.406-21.539-0.93359-0.48828-1.8594-0.98047-2.7812-1.4844-2.4414 5.6992-5.0664 11.34-7.9336 16.902l-2.0898 4.0469-2.0898-4.0547c-2.8711-5.5625-5.5-11.211-7.9453-16.918-0.92578 0.50391-1.8555 0.99609-2.7812 1.4844 3.1406 7.3008 6.5898 14.5 10.41 21.555l0.61719 1.1367-0.63281 1.1328c-0.46875 0.83594-0.94141 1.6562-1.4102 2.457l-1.9727 3.4102-2.0664-3.3555c-4.5039-7.3008-8.4062-14.996-11.738-22.988-0.95312 0.44141-1.9141 0.87891-2.8789 1.3047 3.8984 9.3594 8.6133 18.297 14.078 26.699l0.81641 1.2539-0.78906 1.2695c-9.7227 15.613-21.207 30.445-34.469 44.195l-0.19141 0.19531-0.23438 0.14453c-4.7891 3.0781-9.7539 5.9062-14.867 8.4727l-2.4375 1.2266-0.45312-1.3555c0.089844 1.6875 0.19141 3.3711 0.30078 5.0469l7.9023-3.2969-7.6719 6.3555c2.7617 33.848 11.977 65.832 26.414 94.797 11.379-4.3672 22.391-10.012 32.781-16.961l1.3086-0.875 1.3047 0.875c10.383 6.9453 21.371 12.59 32.742 16.953 14.438-28.965 23.66-60.961 26.414-94.812l-7.6289-6.3242 7.8516 3.2773c0.12109-1.6289 0.22266-3.2578 0.30469-4.8984zm-53.449-48.48c1.668 2.6133 3.3984 5.2031 5.1758 7.7734l-3.6953 2.9023c-2.043-2.3086-4.0156-4.6719-5.9258-7.0898l0.77344-0.60547c-0.089844-0.14453-0.19531-0.29297-0.28516-0.4375l1.0234-0.65625-1.5586-1.1484c0.19141-0.26172 0.38672-0.54297 0.60938-0.84375l2.0273-2.7891zm-9.5664-8.9648 2.0312-3.4766 2.0273 3.4844c0.33594 0.58203 0.69531 1.1641 1.0586 1.7734l0.77734 1.293-0.85547 1.25c-0.35938 0.52734-0.72266 1.0547-1.0977 1.5664l-1.9141 2.6992-1.9141-2.6953c-0.37109-0.52734-0.73438-1.0469-1.0938-1.5625l1.3828-0.95703-0.29297-0.20703c0.0625-0.09375 0.12891-0.18359 0.19141-0.28125-0.089844-0.14453-0.17188-0.29297-0.26172-0.44141l-1.1094-0.66016c0.37109-0.61328 0.73438-1.207 1.0703-1.7852zm-5.5039 8.9648 1.8633-2.9062 2.0273 2.793c0.21094 0.29687 0.41406 0.58203 0.60938 0.84375l1.0547 1.4453-1.1094 1.4062c-1.9102 2.4141-3.8789 4.7773-5.9258 7.0781l-1.7578-1.5586-1.9375-1.332c1.7773-2.5703 3.5078-5.1523 5.1758-7.7695zm63.723 56.77 1.2656 1.1211-0.66016 1.5586c-7.9727 18.832-19.633 36.496-34.996 51.844-6.4336 6.4414-13.281 12.203-20.43 17.332l-1.3711 0.98828-1.3711-0.99219c-7.1523-5.1367-14-10.891-20.43-17.332-15.359-15.348-27.02-33.012-34.996-51.844l2.168-0.91797-1.5586-1.7578c4.1289-3.6523 8.1719-7.4258 12.113-11.367 0.95312-0.95312 1.8945-1.9219 2.8398-2.9062l0.18359-0.19141 0.22266-0.14062c8.2383-5.3477 15.977-11.391 23.117-18.066 5.6797-5.3047 10.98-11.004 15.875-17.051l1.8359-2.2578 1.8242 2.2578c4.8984 6.0469 10.207 11.75 15.883 17.051 7.1406 6.668 14.879 12.719 23.117 18.066l0.22266 0.14062 0.18359 0.19141c0.95703 0.98438 1.8984 1.9531 2.8438 2.9062 3.9414 3.9414 7.9883 7.7148 12.117 11.367z"/>
  <path d="m390.75 425.27c-0.92969-0.92969-1.8242-1.8555-2.7148-2.7773-8.3789-5.4609-16.258-11.613-23.531-18.406-5.1445-4.8047-9.9727-9.9453-14.5-15.348-4.5234 5.4023-9.3477 10.543-14.492 15.348-7.2812 6.793-15.152 12.945-23.527 18.402-0.89453 0.92578-1.7969 1.8555-2.7227 2.7812l-0.003906 0.003906c-3.6016 3.6016-7.2969 7.0391-11.039 10.387 7.7227 17.723 18.793 34.34 33.309 48.848 5.8281 5.8359 12.023 11.078 18.473 15.809 6.4531-4.7383 12.645-9.9727 18.473-15.809 14.516-14.508 25.582-31.125 33.305-48.848-3.7305-3.3477-7.4219-6.7852-11.027-10.391z"/>
  <path d="m505.66 331.78c17.723-7.7266 34.34-18.793 48.848-33.305 5.8359-5.8359 11.07-12.023 15.809-18.48-4.7383-6.4531-9.9727-12.645-15.809-18.473-14.508-14.508-31.125-25.582-48.848-33.309-3.3477 3.7422-6.7891 7.4375-10.395 11.031-0.92969 0.92969-1.8594 1.832-2.7812 2.7227-5.4609 8.3789-11.613 16.258-18.414 23.531-4.8047 5.1445-9.9414 9.9727-15.344 14.5 5.4023 4.5234 10.539 9.3516 15.344 14.5 6.793 7.2734 12.953 15.152 18.414 23.527 0.92578 0.89453 1.8555 1.7969 2.7812 2.7227 3.6016 3.6016 7.043 7.293 10.395 11.031z"/>
  <path d="m520.19 409.25h0.027344v2.3555c0 10.227-0.92578 20.234-2.6484 29.973 11.031-2.4297 21.656-5.9453 31.742-10.438-8.4219-25.168-20.781-49.293-37.094-71.434 4.9688 15.66 7.7461 32.301 7.9727 49.543z"/>
  <path d="m504.21 490.92c1.3281-0.98047 2.6562-1.9648 3.9648-2.957 0.42188-0.33203 0.84375-0.64844 1.2695-0.98047 0.039063-0.027344 0.085938-0.0625 0.11719-0.09375-1.9766-0.58203-3.9492-1.1797-5.9141-1.8047-1.5898 3.3438-3.2773 6.625-5.0664 9.8398 1.3398-0.92578 2.6641-1.8555 3.9766-2.8008 0.54297-0.39062 1.0938-0.80078 1.6523-1.2031z"/>
  <path d="m501.13 479.32c4.4961-10.098 8.0117-20.715 10.445-31.746-9.7031 1.7188-19.68 2.6445-29.871 2.6484l-0.089844 0.003906h-0.43359l-0.039063-0.003906c-17.914-0.042969-35.191-2.8516-51.426-7.9922 22.133 16.301 46.25 28.668 71.414 37.09z"/>
  <path d="m550.78 435.63c-10.852 4.793-22.293 8.4883-34.184 10.961-2.4766 11.891-6.1641 23.328-10.965 34.184 2.8047 0.88672 5.6289 1.7305 8.457 2.5156 0.69531-0.55859 1.3828-1.1133 2.0781-1.6875 0.78516-0.64453 1.5625-1.3008 2.3398-1.9609v-0.003906s0.003906-0.003907 0.003906-0.003907c1.0352-0.875 2.0625-1.7539 3.0781-2.6445 0.003906-0.003906 0.015624-0.011719 0.023437-0.023437 0.72656-0.64453 1.457-1.2812 2.1719-1.9219l-0.003906 0.003906c0.17969-0.15625 0.36328-0.32422 0.54688-0.49219 0.015625-0.015626 0.035156-0.027344 0.050781-0.042969 0 0 0.003906 0 0.003906-0.003907l0.003906-0.003906c0-0.003906 0.003907-0.003906 0.003907-0.011718 0.88672-0.78906 1.7578-1.5781 2.6211-2.375 0.80469-0.74609 1.6055-1.4961 2.3984-2.2383 0.46875-0.44141 0.94141-0.89453 1.418-1.3555 0-0.003907 0.003906-0.003907 0.003906-0.011719 0.58203-0.55859 1.1523-1.1016 1.7148-1.6523 0.71875-0.69922 1.4375-1.418 2.1602-2.1328 0.72656-0.73437 1.4453-1.4609 2.1602-2.1914l-0.003906 0.003906c0.61719-0.63281 1.2305-1.2812 1.8594-1.9336 0.003906-0.011719 0.015625-0.023438 0.027344-0.035157 0.35156-0.35937 0.69531-0.71875 1.0195-1.0625l1.25 1.1797-1.2422-1.1797c0.80469-0.84375 1.5977-1.7031 2.3906-2.5547 0-0.003906 0.003907-0.011719 0.003907-0.011719v-0.003906c0.015625-0.023438 0.035156-0.035156 0.050781-0.050781 0.72266-0.78906 1.4453-1.5898 2.1719-2.3984 0.015625-0.023437 0.039063-0.042969 0.0625-0.066406v-0.003906c0.011719-0.011719 0.023437-0.023438 0.035156-0.039063 0.16797-0.19141 0.33984-0.375 0.50391-0.55859l-0.003907 0.003907c0.66016-0.73828 1.3086-1.4883 1.9766-2.2344 0.83984-0.95703 1.668-1.9336 2.4961-2.9102 0.015624-0.015626 0.035156-0.035157 0.050781-0.054688 0.72266-0.85156 1.4375-1.707 2.1523-2.5664 0-0.003906 0-0.003906 0.003907-0.011719 0.53906-0.66016 1.0742-1.3203 1.6055-1.9805-0.76563-2.8086-1.6133-5.6328-2.4961-8.4375z"/>
  <path d="m556.32 112.12c-1.2266-1.5117-2.4766-3-3.7344-4.4844 0.42578 0.50391 0.83984 1.0117 1.25 1.4883 0.82031 0.99219 1.6562 1.9844 2.4844 2.9961z"/>
  <path d="m476.84 346c-11.453 2.4766-23.117 3.7539-34.793 3.7578-8.0859 0-16.156-0.66016-24.152-1.8594 1.1992 7.9961 1.8633 16.066 1.8633 24.152 0 11.676-1.2812 23.336-3.7578 34.781 0.027344 1.5469 0.066406 3.1133 0.066406 4.7148 0 6.832-0.28516 13.59-0.79688 20.289l2.1016 0.875c19.691 8.2148 41.289 12.773 63.945 12.801h0.15625l0.023438 0.003907h0.003906l0.085938-0.003907h0.039062c10.578 0 20.922-1.0234 30.961-2.918 1.7578-9.3008 2.7539-18.867 2.8945-28.637h-0.054688l0.085938-2.4375v-0.28516c-0.039063-22.637-4.5938-44.199-12.801-63.867l-0.875-2.1016c-6.6992 0.50781-13.461 0.80078-20.289 0.80078-1.5977 0-3.1602-0.039062-4.707-0.066406z"/>
  <path d="m91.102 246.38c1.7305-0.94141 3.4648-1.8594 5.2188-2.7617-1.1758-3.2969-2.2578-6.6289-3.2266-9.9922-0.76562 4.2383-1.4336 8.4883-1.9922 12.754z"/>
  <path d="m97.965 248.06c-2.5547 1.3203-5.0781 2.6758-7.5703 4.0781-1.0234 9.2578-1.5898 18.559-1.6641 27.859 0.074219 9.2852 0.63672 18.57 1.6562 27.816 2.4961 1.3984 5.0273 2.7617 7.5898 4.082 4.2812-11.051 9.7461-21.746 16.402-31.898-6.668-10.16-12.133-20.871-16.414-31.938z"/>
  <path d="m96.324 316.34c-1.7539-0.90625-3.5-1.832-5.2305-2.7734 0.56641 4.2773 1.2305 8.5391 1.9922 12.789 0.97266-3.3633 2.0586-6.6992 3.2383-10.016z"/>
  <path d="m204.92 340.99-1.1992-0.39844 1.2227-2.4375c2.582-5.1367 5.4258-10.125 8.5195-14.934l0.15234-0.23047 0.19531-0.19141c13.742-13.238 28.547-24.711 44.152-34.418l1.2695-0.79688 1.2539 0.81641c8.4062 5.4727 17.344 10.176 26.707 14.078 0.42578-0.96484 0.86328-1.9219 1.3047-2.8789-8.0039-3.3281-15.695-7.2305-22.992-11.738l-3.3555-2.0664 3.4102-1.9727c0.80078-0.46484 1.6172-0.93359 2.4453-1.4062l1.1328-0.63672 1.1406 0.61719c7.0547 3.8203 14.258 7.2734 21.57 10.422 0.48047-0.92969 0.97266-1.8594 1.4766-2.7812-5.7109-2.4453-11.363-5.0781-16.93-7.9453l-4.0586-2.0898 4.0469-2.0898c5.5703-2.8711 11.234-5.5117 16.953-7.957-0.50391-0.92578-0.99609-1.8477-1.4766-2.7773-7.3203 3.1484-14.527 6.6016-21.59 10.426l-1.1406 0.61719-1.1328-0.63281c-0.83594-0.46484-1.6445-0.94141-2.4453-1.3984l-3.4141-1.9727 3.3594-2.0664c7.3125-4.5117 15.023-8.4219 23.039-11.762-0.44141-0.95312-0.87891-1.9102-1.3086-2.8711-9.375 3.9023-18.328 8.625-26.746 14.094l-1.2539 0.81641-1.2695-0.78906c-15.602-9.7109-30.414-21.184-44.152-34.43l-0.20312-0.19141-0.15234-0.23438c-3.0859-4.8086-5.9297-9.793-8.5117-14.93l-1.2227-2.4375 1.3281-0.44141c-1.6758 0.085938-3.3438 0.18359-5.0117 0.30078l3.3281 7.9531-6.3945-7.7227c-33.848 2.7617-65.828 11.984-94.793 26.426 4.3672 11.375 10.008 22.371 16.957 32.766l0.87891 1.3047-0.875 1.3047c-6.9453 10.383-12.578 21.363-16.941 32.73 28.953 14.438 60.949 23.664 94.801 26.426l6.3555-7.6758-3.2969 7.9062c1.6172 0.10938 3.2422 0.21484 4.8672 0.29688zm48.508-53.469c-2.5742 1.6523-5.1289 3.3594-7.668 5.1016l-1.332-1.9375-1.5586-1.7578c2.2734-2.0117 4.6016-3.9609 6.9883-5.8359l1.4062-1.1133 1.4453 1.0625c0.25391 0.18359 0.53125 0.37891 0.83594 0.59766l2.7891 2.0273zm3.082-9.4336c0.51953-0.37109 1.043-0.72656 1.5508-1.082l1.2422-0.86328 1.3008 0.77344c0.60938 0.36328 1.1992 0.72266 1.7734 1.0586l3.4648 2.0273-3.4648 2.0273c-0.57031 0.33594-1.1602 0.69531-1.7656 1.0586l-1.3008 0.77734-1.25-0.86328c-0.50781-0.35156-1.0312-0.71875-1.5508-1.0859l1.3672-1.9141zm-12.094-8.7812 1.3398-1.9375c2.5352 1.7539 5.0977 3.4609 7.6758 5.1133l2.9102 1.8633-2.8008 2.0273c-0.29297 0.21094-0.57812 0.41016-0.83594 0.59766l-1.4453 1.0586-1.3984-1.1094c-2.3867-1.8867-4.7227-3.8359-7-5.8516zm-47.77 66.887-1.125 1.2656-1.5586-0.65625c-18.832-7.9805-36.488-19.641-51.84-34.996-6.4336-6.4336-12.195-13.281-17.328-20.434l1.9102-1.3711-1.9102-1.3711c5.1367-7.1523 10.887-14 17.328-20.43 15.355-15.355 33.012-27.016 51.844-34.996l1.5586-0.66016 1.1211 1.2656c3.6562 4.1289 7.4297 8.1758 11.375 12.117 0.96484 0.96875 1.9531 1.9219 2.9531 2.8906l0.18359 0.18359 0.14453 0.22266c5.332 8.2109 11.363 15.926 18.016 23.051 5.3086 5.6914 11.016 11 17.07 15.898l2.2617 1.8281-2.2578 1.832c-6.0586 4.8984-11.762 10.215-17.07 15.898-6.6523 7.1172-12.68 14.836-18.008 23.039l-0.14453 0.22266-0.19141 0.18359c-0.99609 0.96875-1.9883 1.9258-2.957 2.8945-3.9414 3.9453-7.7188 7.9922-11.375 12.121z"/>
  <path d="m225.88 294.52c4.8086-5.1562 9.957-9.9922 15.367-14.52-5.4023-4.5312-10.555-9.3633-15.367-14.52-6.7773-7.2539-12.914-15.109-18.363-23.457-0.93359-0.90625-1.8828-1.8242-2.8281-2.7734-3.6016-3.6016-7.0508-7.2969-10.395-11.039-17.73 7.7227-34.34 18.793-48.848 33.305-5.8359 5.8359-11.07 12.023-15.809 18.473 4.7383 6.457 9.9805 12.645 15.809 18.48 14.504 14.504 31.121 25.574 48.844 33.305 3.3477-3.7422 6.793-7.4297 10.395-11.039 0.94531-0.94531 1.8945-1.8633 2.832-2.7773 5.4531-8.332 11.586-16.184 18.363-23.438z"/>
  <path d="m562.08 432.61c0.96484-1.3281 1.9023-2.6836 2.8438-4.0391-3.2188 1.793-6.5 3.4766-9.8398 5.0664 0.62891 1.9648 1.2266 3.9375 1.8047 5.918 0.074219-0.09375 0.13281-0.17188 0.20703-0.26953l-0.011719 0.015625c0.26953-0.35156 0.53906-0.70703 0.8125-1.0586 1.043-1.3672 2.0664-2.7422 3.0859-4.1328v0.003906c0.36719-0.5 0.73828-1.0039 1.0977-1.5039z"/>
  <path d="m371.07 543.55 0.12891 1.5586-0.19141-2.3438z"/>
  <path d="m174.19 479.59c-1.3164-1.1602-2.6328-2.3242-3.9414-3.5352l-0.007813-0.007812-0.24609-0.23047 0.003906 0.003906c-0.875-0.80469-1.7344-1.6133-2.5859-2.4258-1.2617-1.1914-2.5156-2.4023-3.7578-3.6172v-0.003907c-0.86719-0.85156-1.7539-1.7148-2.6367-2.6055-0.54688-0.55859-1.082-1.1094-1.6055-1.6523-1.125-1.1602-2.2383-2.3242-3.3555-3.5039 6.4297 6.8477 13.211 13.367 20.328 19.504-0.77344-0.65625-1.4883-1.3047-2.1953-1.9258z"/>
  <path d="m509.52 73.078c-0.074219-0.054687-0.14453-0.11719-0.21875-0.17188l0.011718 0.003906c-0.35938-0.27344-0.71094-0.54688-1.0625-0.81641-1.3672-1.043-2.7422-2.0664-4.1289-3.0859-0.50781-0.37109-1.0117-0.73828-1.5078-1.0977-1.332-0.95703-2.6836-1.9023-4.043-2.8438 1.7852 3.2031 3.4648 6.4805 5.0508 9.8047 1.9609-0.61328 3.9258-1.2148 5.8984-1.793z"/>
  <path d="m560.84 125.65c-0.89062-1.2148-1.7852-2.418-2.7031-3.6172-0.41016-0.53906-0.82422-1.0703-1.2422-1.6055-0.57812 1.9727-1.1758 3.9375-1.7969 5.8984 3.3438 1.5898 6.625 3.2773 9.8398 5.0742-0.67188-0.96484-1.3477-1.9258-2.0312-2.8906-0.46484-0.65625-0.91797-1.293-1.3789-1.9258-0.23828-0.31641-0.46484-0.625-0.6875-0.93359z"/>
  <path d="m519.83 81.457c-1.5352-1.3164-3.0859-2.6094-4.6484-3.8906-0.15625-0.125-0.30078-0.24219-0.44141-0.35156-0.22266-0.17969-0.45313-0.35938-0.67578-0.54297-2.8281 0.78906-5.6445 1.6367-8.457 2.5195 4.8008 10.852 8.5 22.293 10.969 34.184 11.895 2.4766 23.34 6.1641 34.195 10.965 0.88672-2.8008 1.7305-5.6094 2.5156-8.4297-0.81641-1.0117-1.625-2.0273-2.4453-3.0117l-0.125-0.15234-0.25391-0.29688-0.011719-0.015625c-1.3398-1.6016-2.6992-3.1797-4.0781-4.75l-0.33984-0.38672c-0.17188-0.19531-0.34766-0.39062-0.52734-0.59375-1.2383-1.3945-2.4922-2.7773-3.7617-4.1445-0.3125-0.33984-0.62891-0.68359-0.94141-1.0195l-0.10547-0.11719c-1.25-1.332-2.5156-2.6484-3.7969-3.9648-0.39844-0.41016-0.77734-0.80078-1.1484-1.1758-1.0547-1.0625-2.1328-2.1172-3.2266-3.1875-0.93359-0.91406-1.8711-1.8125-2.8047-2.7031-1.1602-1.0977-2.3125-2.1914-3.4766-3.2539-0.78516-0.71875-1.5977-1.4297-2.418-2.168-1.0625-0.95312-2.1211-1.8945-3.1875-2.8164-0.25781-0.22266-0.51562-0.44141-0.77344-0.66797l-0.039063-0.027344c0.015625 0.015625 0.015625 0.007813 0.003906 0l1.5273-1.7852z"/>
  <path d="m522.14 80.465 0.070312-0.070313 0.003907-0.011719-0.003907 0.011719z"/>
  <path d="m387.19 269.02c-0.62891 1.2266-1.2422 2.457-1.8828 3.6797l1.9336 1.5195 0.19141 0.25391c0.085937 0.11719 0.16797 0.23438 0.25781 0.35156 0.53906-1.0195 1.0859-2.0312 1.6133-3.0625-0.69922-0.92188-1.3984-1.8359-2.1133-2.7422z"/>
  <path d="m559.77 116.45c0.70703 0.90625 1.418 1.8125 2.1172 2.7383 0.89063 1.1719 1.7656 2.3398 2.6367 3.5234-2.2773-3.0977-4.6211-6.1445-7.0273-9.1406 0.76562 0.96094 1.5273 1.9219 2.2734 2.8789z"/>
  <path d="m477.19 109.8c1.457-0.039062 2.9102-0.054687 4.375-0.054687 10.238 0 20.262 0.92969 30 2.6562-2.4375-11.031-5.9531-21.656-10.449-31.746-25.168 8.4336-49.293 20.793-71.438 37.105 15.047-4.7773 30.992-7.5469 47.512-7.9609z"/>
  <path d="m572.96 134.9c-0.96484-1.4727-1.9336-2.9336-2.918-4.3906 0.99219 1.4531 1.9609 2.9258 2.918 4.3906z"/>
  <path d="m566.73 125.78c0.67188 0.94141 1.3477 1.8984 2.0234 2.8672-1.0938-1.5664-2.1953-3.1289-3.3164-4.6758 0.4375 0.60938 0.86719 1.2109 1.293 1.8086z"/>
  <path d="m574.59 137.45 0.42969 0.67188c-0.35938-0.57031-0.71094-1.1523-1.082-1.7188 0.25 0.38672 0.46094 0.74609 0.65234 1.0469z"/>
  <path d="m549.32 128.84c-10.098-4.5039-20.719-8.0117-31.762-10.445 1.7305 9.7266 2.6602 19.734 2.6602 29.961v0.46875l-0.003906 0.039062c-0.039063 17.922-2.8438 35.195-7.9922 51.438 16.312-22.152 28.676-46.285 37.098-71.461z"/>
  <path d="m603.66 243.61c1.8125 0.93359 3.625 1.8945 5.4219 2.8711-0.57812-4.457-1.2656-8.9023-2.0664-13.34-1.0039 3.5195-2.1211 7.0156-3.3555 10.469z"/>
  <path d="m574.59 422.53c-0.23438 0.36328-0.48047 0.78516-0.76562 1.2266v-0.003906l-0.015625 0.035156-0.19141 0.28516c-1.1992 1.8633-2.4258 3.707-3.6719 5.5312l-0.003906 0.003907c-0.30859 0.44922-0.60938 0.87891-0.90234 1.3008-1.0312 1.4961-2.0781 2.9805-3.1406 4.4648-0.375 0.51562-0.75 1.0312-1.1133 1.5273-1.0352 1.4102-2.0781 2.8125-3.1406 4.1992-0.27344 0.35156-0.54688 0.71875-0.82422 1.0742l-0.011718 0.015625c-0.12891 0.16797-0.26953 0.34766-0.42188 0.53906l0.011719-0.011718c-0.63281 0.81641-1.2812 1.6172-1.9219 2.4297v0.003907l-0.48828 0.61328c-0.29688 0.37109-0.58203 0.75781-0.88672 1.1211-0.3125 0.38672-0.63281 0.79688-0.97266 1.2031l0.003906-0.003907c-0.30078 0.37109-0.58203 0.69531-0.82812 0.99219l-1.8203-1.4961-0.10547-0.085937 0.10547 0.085937 1.8203 1.5c-0.25781 0.3125-0.53906 0.66797-0.85156 1.0469l0.003906-0.003906c-0.17969 0.21094-0.33594 0.39844-0.46875 0.56641l-0.003906 0.011719c-0.33203 0.38672-0.63281 0.73438-0.91406 1.0586-0.011718 0.015626-0.027343 0.035157-0.042968 0.050782-0.32422 0.38672-0.66797 0.8125-1.0469 1.2539l-0.3125 0.375c-0.39844 0.46094-0.78906 0.88672-1.1484 1.293-0.17188 0.20312-0.37891 0.44922-0.62891 0.73438l-0.20703 0.23438-0.003906 0.003906c-0.23438 0.26172-0.46484 0.53125-0.69922 0.78906-0.34766 0.38672-0.68359 0.75-0.98438 1.0859-0.54688 0.60938-1.0977 1.2422-1.6758 1.8711l0.003907-0.011719c-0.24609 0.28125-0.46875 0.50781-0.66016 0.71094-0.11719 0.12891-0.27344 0.3125-0.46484 0.51562l-0.015625 0.015626c0.003906-0.003907 0.011718-0.011719 0.015625-0.015626-0.14453 0.15234-0.28516 0.30859-0.41406 0.44922l-0.015625 0.015625c-0.21875 0.23438-0.4375 0.46875-0.66797 0.71094v0.003906c-0.32031 0.33594-0.60937 0.63672-0.88672 0.92578-0.011719 0.015625-0.027344 0.035157-0.042969 0.050781l-0.14453 0.15234-0.015625 0.015625c-0.23438 0.25391-0.46094 0.47656-0.67188 0.69922-0.0625 0.066406-0.125 0.12891-0.19141 0.19141l-1.4453-1.3906 1.4453 1.3906v0.003906c-0.035157 0.039063-0.066407 0.074219-0.10547 0.11328-0.58203 0.60547-1.1641 1.2266-1.7734 1.8555v0.003907c-0.35938 0.36328-0.72656 0.75781-1.125 1.1484v0.003906c-0.36328 0.36328-0.71875 0.70703-1.0469 1.0312-0.003906 0.011719-0.011718 0.015626-0.023437 0.027344l-0.003907 0.003906c-0.33203 0.33594-0.67578 0.6875-1.0469 1.0547-0.41406 0.41016-0.81641 0.80078-1.1992 1.1719-0.54688 0.53125-1.082 1.0352-1.5977 1.5234-0.035156 0.035157-0.066406 0.066407-0.10156 0.10156-0.36328 0.35156-0.75 0.73438-1.1523 1.1094h-0.019531l-0.29297 0.27344c-0.003906 0.011718-0.023437 0.023437-0.035156 0.035156-0.25781 0.24609-0.53906 0.51953-0.85156 0.81641l-0.011719 0.015625-0.10547 0.09375c-0.35156 0.33203-0.69922 0.64844-1.0352 0.95703l-0.011719 0.015625-0.40234 0.35938c-0.23047 0.21094-0.46875 0.44922-0.75781 0.70703-0.63281 0.58203-1.2617 1.1367-1.8828 1.6875-0.011718 0.011718-0.023437 0.027343-0.035156 0.039062-0.35156 0.32031-0.72266 0.66016-1.125 1.0234l-0.011719 0.011718c-0.17969 0.15234-0.375 0.33594-0.58984 0.52734l0.003906-0.011719-0.38672 0.34766v-0.007813c-0.26953 0.23438-0.50391 0.42578-0.69531 0.59375-0.003906 0.003906-0.011718 0.003906-0.011718 0.011719-0.003906 0.003906-0.003906 0.003906-0.015625 0.011718v0.003907c-0.38672 0.33984-0.78906 0.70703-1.2266 1.082l-0.011718 0.011719c-0.21875 0.18359-0.41406 0.34766-0.58203 0.49219l-0.003906 0.003906c-0.46484 0.39844-0.91406 0.76172-1.3164 1.1016-0.023438 0.015625-0.050782 0.039063-0.074219 0.0625-0.26172 0.22266-0.54297 0.47656-0.86719 0.74609l-0.32031 0.27344-0.011719 0.015625-0.15625 0.125c-0.35156 0.29688-0.67188 0.54688-0.95312 0.77734l-1.3594-1.6562-0.066406-0.078125 0.023438 0.027344 1.4062 1.707c-0.3125 0.25781-0.64844 0.54688-1.0312 0.85547-0.46484 0.375-0.91797 0.73828-1.3594 1.0938-0.44922 0.35938-0.90234 0.71094-1.3555 1.0703l-0.26172 0.21094c-0.79688 0.62891-1.5859 1.2656-2.3867 1.8828-0.15234 0.11719-0.30859 0.24219-0.46484 0.35156-0.42969 0.33594-0.85547 0.66016-1.2891 0.99219-1.3398 1.0195-2.6836 2.0156-4.0391 3.0117-0.54688 0.40234-1.1094 0.81641-1.6797 1.2266-1.4102 1.0195-2.8398 2.0156-4.2734 3.0078-0.47656 0.33203-0.96875 0.67578-1.4883 1.0352v-0.003906 0.003906c-1.7305 1.1797-3.4766 2.3359-5.2305 3.4727l-0.003906 0.003907c-0.16406 0.10547-0.35156 0.23438-0.58984 0.38672-0.4375 0.28125-0.83594 0.51953-1.1875 0.74609l-2.6875 1.7148c35.105-21.746 64.773-51.418 86.504-86.531z"/>
  <path d="m611.79 251.36 0.1875-0.019531z"/>
  <path d="m526.52 81.027c1.3711 1.2148 2.7266 2.4453 4.0703 3.6836-1.3516-1.2383-2.707-2.4648-4.0703-3.6836z"/>
  <path d="m611.71 251.29h0.003906v0.15625h-0.003906z"/>
  <path d="m313.61 533.66c-3.4609 1.2266-6.9492 2.3477-10.473 3.3555 4.4336 0.80078 8.8828 1.4961 13.34 2.0664-0.96875-1.8047-1.9336-3.6094-2.8672-5.4219z"/>
  <path d="m571.34 140.7c-5.6836-3.6406-11.609-6.9141-17.734-9.8633-10.125 30.051-25.75 58.645-46.918 84.207l-0.042968 0.050782c33.066 3.1016 64.348 12.285 92.77 26.383 2.25-6.4062 4.1211-12.906 5.5664-19.488l2.207-10.051c-6.1602-23.328-15.398-45.395-27.273-65.75z"/>
  <path d="m612.18 301.78 0.5 0.039062 0.36719 0.027344z"/>
  <path d="m386.36 533.64c-0.94141 1.8242-1.9023 3.6328-2.8828 5.4414 4.4727-0.58203 8.9375-1.2695 13.379-2.0703-3.5273-1.0078-7.0273-2.1328-10.496-3.3711z"/>
  <path d="m408.02 539.58c-9.4453 2.1016-18.988 3.6797-28.57 4.75l-0.26172-2.3398v0.027343l0.26172 2.3125c-0.37109 0.039063-0.71094 0.074219-1.0352 0.11328-1.5273 0.16406-3.0781 0.33984-4.6484 0.47656h0.003906l-0.078125 0.011719h-0.054688l-0.37891 0.035156h0.011719c-0.46094 0.039062-0.86328 0.0625-1.2109 0.089844-0.32422 0.027344-0.60938 0.042968-0.86328 0.066406h-0.023437c-1.6406 0.12891-3.2891 0.26172-4.957 0.36328h-0.003907c-0.30859 0.015625-0.62109 0.039063-0.94531 0.054688-0.24219 0.015625-0.42578 0.015625-0.53906 0.027343h-0.015625l-0.11719-2.0234 0.11328 2.0234c-0.28125 0.015626-0.50781 0.023438-0.68359 0.035157l-0.12891-2.3516 0.125 2.3516c-1.9375 0.10156-3.8789 0.19531-5.8359 0.25781h-0.003907c-0.12891 0-0.29297 0.011719-0.48047 0.015625-2.582 0.074219-5.1641 0.11719-7.75 0.11719-0.66016 0-1.2773-0.023438-1.8477-0.027344-1.6914-0.011719-3.3945-0.027344-5.1055-0.074219-0.98047-0.027343-1.9375-0.074219-2.8711-0.10547-1.4961-0.054687-2.9961-0.11719-4.4961-0.19531-0.94141-0.054688-1.8867-0.11328-2.8281-0.16797-1.5859-0.10547-3.1758-0.22266-4.7539-0.35156-0.80469-0.066407-1.625-0.12891-2.457-0.20703-1.5664-0.14063-3.1133-0.3125-4.6523-0.48047l0.24219-2.2188-0.25781 2.2188-0.066407-0.011719-1.4766-0.15234-0.015625-0.035156c-9.1797-1.0586-18.316-2.582-27.363-4.5938l-4.9453-1.1016c20.172 4.8867 41.25 7.5078 62.949 7.5078 21.645 0 42.676-2.6055 62.82-7.4805z"/>
  <path d="m200.59 500.1c1.4062 0.95703 2.8242 1.8945 4.25 2.8242-1.4219-0.92578-2.8398-1.8672-4.25-2.8242z"/>
  <path d="m207.45 504.6c-0.32031-0.20312-0.6875-0.42188-1.082-0.67578-0.53906-0.34766-1.043-0.68359-1.5234-1.0039v0.003906c1.1602 0.75781 2.3242 1.5078 3.4961 2.2344z"/>
  <path d="m182.22 486.4c-1.2695-1.0352-2.5273-2.082-3.7695-3.1406-0.23047-0.19141-0.49219-0.40234-0.75781-0.62891 1.4961 1.2773 3.0039 2.5312 4.5273 3.7695z"/>
  <path d="m611.94 309.09h0.003906l0.046876 0.003906h0.003906z"/>
  <path d="m189.29 491.96c-1.0039-0.76563-2-1.5352-2.9922-2.3125v0.003906c-0.94531-0.74609-1.8984-1.4883-2.8438-2.25-0.089844-0.074219-0.18359-0.14453-0.28125-0.22266 3.0977 2.4961 6.25 4.9297 9.4531 7.2852-1.1055-0.83594-2.2227-1.6641-3.3359-2.5039z"/>
  <path d="m198.54 498.68h0.003906c-0.875-0.59766-1.7344-1.2148-2.5859-1.8203-0.69531-0.49219-1.3945-0.99219-2.1016-1.5078 1.8555 1.3438 3.7227 2.6719 5.6094 3.9688-0.30078-0.21484-0.62109-0.42969-0.92578-0.64062z"/>
  <path d="m291.98 534.99c6.5859-1.4492 13.086-3.3203 19.492-5.5664-14.102-28.426-23.277-59.707-26.387-92.77l-0.050782 0.03125c-25.559 21.172-54.156 36.805-84.207 46.922 2.9414 6.125 6.2227 12.051 9.8555 17.734l5.4922 8.5742c20.352 11.871 42.414 21.117 65.738 27.273z"/>
  <path d="m210.7 58.656c-3.6289 5.668-6.9062 11.586-9.8398 17.695 30.062 10.137 58.66 25.766 84.223 46.949l0.015625 0.011719c3.1094-33.066 12.297-64.344 26.395-92.758-6.2344-2.1953-12.562-4.0312-18.961-5.4609l-10.355-2.3086 10.355-2.2852c8.8203-1.9492 17.723-3.4375 26.668-4.5039l0.10547-0.19531 1.2109-0.13281c1.6445-0.18359 3.3086-0.35938 4.9844-0.51562 0.92578-0.085938 1.8359-0.15625 2.7266-0.23047 1.4766-0.125 2.957-0.23438 4.4336-0.33203 1.0312-0.066406 2.0625-0.12891 3.0898-0.18359 1.3984-0.074219 2.8008-0.13281 4.1953-0.18359 1.0195-0.039062 2.0547-0.085937 3.1133-0.11328 1.6172-0.042969 3.2266-0.054687 4.8203-0.074219h0.003906c0.66016-0.003906 1.3594-0.023437 2.1016-0.023437 2.5547 0 5.1055 0.039062 7.6562 0.11328l-0.019531 0.003906c0.30859 0.003906 0.57031 0.023438 0.79687 0.027344h0.003907c2.2383 0.074219 4.4844 0.16797 6.7266 0.29688 0.41016 0.023437 0.81641 0.050781 1.2266 0.074219 2.2461 0.14062 4.4922 0.30078 6.7383 0.5h-0.011719c0.19531 0.015625 0.40234 0.027344 0.62891 0.050781h0.015626l0.14062 0.011719h-0.011718c1.875 0.16797 3.7344 0.37109 5.5781 0.57812l1.2031 0.13281 0.10547 0.19141c8.9609 1.0625 17.879 2.5586 26.719 4.5117l10.367 2.2852-10.367 2.3008c-6.418 1.4297-12.758 3.2695-19 5.4727 14.105 28.422 23.289 59.711 26.395 92.781l0.050781-0.042969c25.559-21.18 54.145-36.809 84.191-46.938-2.9336-6.1094-6.2031-12.023-9.832-17.695l-5.5156-8.625c-39.301-22.906-85-36.043-133.77-36.043-48.789 0-94.5 13.148-133.81 36.074z"/>
  <path d="m535.67 89.555c0.46094 0.44922 0.93359 0.90625 1.418 1.3828 0.95703 0.94531 1.8828 1.8984 2.793 2.8281 1.1484 1.1719 2.2891 2.3477 3.4102 3.5391 0.92578 0.97266 1.8594 1.9648 2.7773 2.9688 1.1094 1.2109 2.1914 2.4297 3.2578 3.6328 0.69922 0.79688 1.4375 1.6055 2.168 2.4531-6.1641-7.1445-12.711-13.957-19.594-20.41 1.2852 1.1914 2.5352 2.3945 3.7695 3.6055z"/>
  <path d="m608.5 217.09 1.0938 4.8984c1.9883 8.9375 3.4961 17.965 4.5547 27.027l0.039063 0.011719 0.15625 1.5117 0.023437 0.20703 0.035157 0.33984c0.16406 1.4609 0.32422 2.9336 0.46094 4.418 0.078125 0.84375 0.14062 1.6758 0.20703 2.4922 0 0.003906 0 0.015624 0.003906 0.027343l0.003907 0.12891 0.003906 0.074218c0.125 1.4766 0.23438 2.957 0.33203 4.4336 0.054688 0.86719 0.10547 1.7344 0.15625 2.5977l0.011719 0.16406v0.003906 0.023437l0.011719 0.28125v0.015626c0.074218 1.4062 0.13281 2.8008 0.18359 4.1875 0.039062 1.0234 0.085937 2.0625 0.11328 3.1133 0.042969 1.625 0.054687 3.2266 0.074219 4.8203v0.003907c0 0.66016 0.023437 1.3594 0.023437 2.1016 0 2.5547-0.039063 5.1055-0.11719 7.6562-0.003907 0.30078-0.023438 0.55469-0.027344 0.77344v-0.039063 0.054687c-0.0625 1.9727-0.15625 3.9375-0.25781 5.8984v0.027344l-0.007812 0.21875-2.3203-0.10547 0.10547 0.003906 2.2109 0.11719v0.003906c-0.003906 0.11719-0.011718 0.3125-0.023437 0.56641v0.003907c-0.023437 0.40234-0.050781 0.8125-0.074219 1.2148-0.10156 1.5859-0.22266 3.1523-0.34766 4.7031v0.039063c-0.023438 0.27344-0.039062 0.57812-0.066406 0.90234-0.027344 0.32031-0.042969 0.67578-0.085938 1.0859v-0.003906c-0.015625 0.19141-0.035156 0.39844-0.050781 0.62891v0.039062l-0.015625 0.13281c-0.13281 1.5352-0.30078 3.0469-0.46484 4.5352l-2.3359-0.25781 2.3359 0.25781c-0.027344 0.27344-0.054687 0.58984-0.10156 0.93359l-0.15625 1.707c1.1875-10.184 1.8164-20.555 1.8164-31.066 0-21.676-2.6094-42.746-7.5039-62.914z"/>
  <path d="m607.2 348.07-2.207-10.051c-1.4453-6.5977-3.3203-13.113-5.5781-19.523-28.426 14.102-59.719 23.277-92.785 26.383l0.066406 0.085938c21.168 25.555 36.793 54.141 46.91 84.172 6.125-2.9336 12.051-6.2148 17.734-9.8555l8.6172-5.5156c11.859-20.332 21.09-42.387 27.242-65.695z"/>
  <path d="m492.53 55.41c0.35938 0.23438 0.77734 0.47656 1.2305 0.77344l0.015626 0.011718 0.30859 0.20313-0.015625-0.011719c1.8594 1.1992 3.707 2.4258 5.5312 3.6719 0.46094 0.3125 0.89062 0.61719 1.3047 0.90625 1.4961 1.0312 2.9844 2.0781 4.457 3.1406 0.51953 0.375 1.0312 0.75 1.5352 1.1133 1.4062 1.0352 2.8047 2.0781 4.1992 3.1406 0.35938 0.27344 0.71875 0.55469 1.0742 0.82422l0.003906 0.003906c0.17969 0.13281 0.35156 0.27344 0.52734 0.41016h0.003906c0.78516 0.60938 1.5508 1.2227 2.3203 1.8359l0.035156-0.003906 0.99609 0.80078c0.53125 0.42578 1.0469 0.84375 1.5508 1.2617 0.015625 0.015624 0.039062 0.035156 0.0625 0.050781 0 0 0 0.003906 0.003906 0.003906l-1.4648 1.8281-0.066406 0.085938 0.16797-0.20703 1.3789-1.707 0.003906 0.003906c0.125 0.10156 0.23438 0.19141 0.34766 0.28125l0.027344 0.023438 0.011719 0.011719 0.050781 0.042968 0.023438 0.011719c0 0.003906 0.003906 0.003906 0.011718 0.011719 0.48828 0.39844 1.0039 0.80078 1.5234 1.2305l0.003906 0.003907c0.35156 0.29688 0.71094 0.59375 1.0742 0.90234 0.71875 0.60547 1.4062 1.2031 2.082 1.7852l0.003906 0.003906 0.15625 0.12891 0.003907 0.003907 0.40234 0.33984 0.015626 0.011719 0.27344 0.24219c0.003906 0.003906 0.011719 0.011718 0.015625 0.011718l0.011719 0.011719c0.5 0.42969 1.0234 0.875 1.5625 1.3398 0.023437 0.015625 0.039062 0.035156 0.054687 0.054687-11.117-9.7617-23.062-18.602-35.699-26.422z"/>
  <path d="m614.07 311.54c-1.0586 8.8828-2.543 17.723-4.4844 26.48l-1.0586 4.7812c2.4688-10.207 4.3516-20.641 5.6055-31.266z"/>
  <path d="m183.38 446.58c-11.891-2.4688-23.336-6.1719-34.184-10.969-0.88672 2.8125-1.7344 5.6289-2.5195 8.457 0.30078 0.37109 0.59375 0.74609 0.87891 1.0938v-0.003906c1.2812 1.5664 2.5742 3.1211 3.8906 4.6484l0.003907 0.011718 0.20312 0.23438c0 0.003907 0.003906 0.003907 0.003906 0.011719l0.015625 0.023438c0.125 0.14062 0.23438 0.28125 0.35156 0.41016 0.003906 0.011718 0.011718 0.023437 0.015624 0.027344l-1.7656 1.5234-0.011719 0.011719 0.11328-0.09375 1.668-1.4453v0.003907c0 0.003906 0.003906 0.003906 0.003906 0.015624 0.93359 1.082 1.9023 2.1602 2.8828 3.2578v-0.003906c0.75781 0.84375 1.4883 1.6797 2.2305 2.4883 1.0547 1.1523 2.1289 2.2969 3.2188 3.4375 0.90234 0.95703 1.8203 1.9023 2.7422 2.8438 1.0586 1.0938 2.1172 2.1719 3.1797 3.2188 0.36328 0.35938 0.73828 0.72656 1.1328 1.1016 1.3047 1.2773 2.6211 2.5352 3.9375 3.7734 0.24219 0.21875 0.46875 0.4375 0.70703 0.64844l-0.003906-0.003907c0.16797 0.15625 0.3125 0.29688 0.44141 0.41016l0.015625 0.015624c1.3594 1.2617 2.7266 2.4961 4.1094 3.7227v0.003906c0.33594 0.30078 0.66797 0.59375 0.99219 0.87891l0.011719 0.011719c1.5391 1.3555 3.1094 2.6953 4.6875 4.0273v-0.003906c0.20312 0.16797 0.37891 0.32422 0.54688 0.46484h0.003906c0.98438 0.82422 2.0039 1.6367 3.0234 2.4531 2.8164-0.78516 5.6289-1.625 8.4297-2.5078-4.793-10.852-8.4844-22.301-10.957-34.199z"/>
  <path d="m184.45 411.56c0 10.617 1.0234 20.973 2.918 31.023 8.2227 1.5508 16.648 2.5156 25.238 2.8164l-0.089844-0.089844 5.9531 0.19531h0.29297c22.629-0.042968 44.195-4.5977 63.867-12.801l2.0664-0.85547c-0.50781-6.7031-0.80078-13.461-0.80078-20.301 0-1.6445 0.039062-3.2656 0.074218-4.8672-2.4531-11.402-3.7227-23.012-3.7227-34.641 0-8.0938 0.66797-16.172 1.8633-24.168-8.043 1.2109-16.152 1.875-24.277 1.875-11.652 0-23.297-1.2812-34.727-3.7539-1.5273 0.027344-3.0742 0.066406-4.6523 0.066406-6.8359 0-13.609-0.29297-20.312-0.80078l-0.86328 2.0664c-8.2578 19.773-12.828 41.469-12.828 64.234z"/>
  <path d="m201.23 494.8c0.0625 0.042968 0.11719 0.085937 0.17188 0.11719-1.7969-3.2148-3.4844-6.4961-5.0664-9.8398-1.9609 0.62109-3.9258 1.2266-5.9023 1.8047 0.56641 0.4375 1.1367 0.88672 1.707 1.3164 1.1211 0.85156 2.2461 1.6914 3.3828 2.5273v-0.003907c0.35938 0.26953 0.72266 0.53125 1.0977 0.80469v-0.003906c0.68359 0.5 1.3789 0.99219 2.0703 1.4883 0.83984 0.60156 1.6914 1.207 2.5391 1.7891z"/>
  <path d="m416.06 148.46c0 1.5859-0.039062 3.1289-0.066406 4.6602 2.4805 11.434 3.7539 23.07 3.7539 34.73 0 8.1211-0.67188 16.23-1.875 24.266 8.0078-1.1992 16.082-1.8633 24.176-1.8633 11.633 0 23.238 1.2695 34.648 3.7305 1.5977-0.035157 3.207-0.066407 4.8594-0.066407 6.832 0 13.598 0.28516 20.301 0.79688l0.85547-2.0664c8.2148-19.695 12.773-41.289 12.801-63.945v-0.22656l-0.003906-0.074218v-0.023438c0-10.602-1.0312-20.949-2.9297-31-10.059-1.8984-20.418-2.9219-31.023-2.9219-22.77 0-44.457 4.5742-64.23 12.828l-2.0664 0.86328c0.51562 6.7109 0.80078 13.473 0.80078 20.312z"/>
  <path d="m128.66 419.28c5.668 3.6289 11.582 6.8984 17.695 9.8398 10.137-30.043 25.766-58.637 46.938-84.195l0.039063-0.042969c-33.062-3.1094-64.352-12.293-92.77-26.402-2.1992 6.2422-4.043 12.582-5.4727 19l-2.3086 10.348-2.2852-10.355c-1.9531-8.832-3.4375-17.754-4.5078-26.707l-0.19141-0.10547-0.13281-1.2227c-0.20703-1.875-0.41406-3.7695-0.58203-5.6797v0.003906l-0.011719-0.070312-0.003907-0.054688-0.035156-0.37891v0.003906c-0.20703-2.3477-0.375-4.6992-0.51953-7.0508v-0.003906c-0.015625-0.32031-0.039063-0.62891-0.054687-0.94531-0.13281-2.3633-0.24219-4.7227-0.3125-7.0898v0.015625c-0.003907-0.14062-0.011719-0.3125-0.015626-0.50391-0.074218-2.582-0.11719-5.1641-0.11719-7.75 0-0.65625 0.015625-1.2773 0.023437-1.8594v0.003907c0.011719-1.6914 0.027344-3.3867 0.074219-5.1055 0.027344-0.97266 0.074219-1.9336 0.10547-2.8672 0.054688-1.4961 0.11719-2.9961 0.20312-4.4961l-0.007813 0.003906c0.050782-0.94141 0.11328-1.8828 0.16797-2.8164 0.10547-1.5898 0.22266-3.1758 0.35156-4.7617 0.066406-0.8125 0.12891-1.6289 0.20703-2.457 0.15625-1.7031 0.33984-3.3828 0.52734-5.0586l0.13281-1.2148 0.19531-0.10547c1.0703-8.9414 2.5547-17.848 4.5039-26.668l2.2852-10.359 2.3086 10.355c1.4219 6.4023 3.2656 12.73 5.4609 18.961 28.426-14.102 59.695-23.285 92.758-26.395l-0.011719-0.015625c-21.184-25.57-36.812-54.164-46.945-84.223-6.1094 2.9336-12.023 6.2109-17.695 9.8398l-8.5742 5.4883c-22.938 39.316-36.086 85.027-36.086 133.82 0 48.77 13.133 94.461 36.043 133.76z"/>
  <path d="m123.12 418.9c8.0312 13.094 17.168 25.43 27.273 36.898-0.18359-0.21094-0.37109-0.42188-0.54688-0.63281-0.46875-0.53906-0.91406-1.0586-1.3438-1.5586l-0.003906-0.011719c-0.003906-0.003906-0.011719-0.011718-0.015625-0.015625l-0.089844-0.10547-0.023437-0.027343-0.30078-0.35156c-0.60547-0.70703-1.2383-1.4219-1.8594-2.1719-0.37891-0.45312-0.76172-0.90625-1.1406-1.3672-0.96484-1.1602-1.8945-2.3242-2.8281-3.4844l-0.75781-0.94531 0.003906-0.035156c-0.60938-0.77344-1.2305-1.5391-1.8359-2.3242-0.125-0.15625-0.24219-0.3125-0.35938-0.46484l0.003907 0.011718c-0.33594-0.42969-0.66797-0.86328-0.99609-1.3008l0.003906 0.003906c-1.0195-1.332-2.0234-2.6836-3.0117-4.0391-0.39844-0.55469-0.8125-1.1016-1.2227-1.6758-1.0195-1.418-2.0273-2.8438-3.0195-4.2773-0.32422-0.47656-0.67578-0.96875-1.0312-1.4883-1.1758-1.7344-2.3359-3.4766-3.4727-5.2344l-0.003907-0.003907c-0.10547-0.16406-0.23437-0.35156-0.38672-0.58984v0.003906c-0.28125-0.44141-0.51953-0.84375-0.74609-1.1992z"/>
  <path d="m151.16 456.66c1.1641 1.3164 2.3477 2.6211 3.543 3.9102-1.1914-1.2891-2.375-2.5938-3.543-3.9102z"/>
  <path d="m137.88 432.55c0.39063 0.54297 0.79688 1.0859 1.2031 1.6523v-0.003906c0.97266 1.332 1.9609 2.6562 2.957 3.9609l0.003906 0.011719c0.32031 0.42188 0.63672 0.83594 0.96484 1.2539l0.003906 0.011718c0.023437 0.027344 0.039063 0.054688 0.0625 0.085938 0.57812-1.9727 1.1758-3.9297 1.7969-5.8984-3.3281-1.5781-6.6016-3.2656-9.8047-5.0508 0.92969 1.332 1.8594 2.6602 2.8125 3.9766z"/>
  <path d="m156.46 97.551s0.003907 0 0.003907-0.003906l0.11719-0.12891 0.011719-0.015625c0.16406-0.16797 0.30859-0.3125 0.42969-0.44141 0.027344-0.035157 0.0625-0.066407 0.09375-0.10156 0.79688-0.83984 1.6016-1.6914 2.4297-2.543 0.44922-0.46094 0.90625-0.93359 1.3789-1.4102 0.29688-0.30078 0.57812-0.57031 0.82812-0.81641 0.33984-0.34766 0.69531-0.70703 1.0625-1.082l0.003906-0.003906c0.55859-0.55469 1.1133-1.082 1.6523-1.6055 1.1523-1.125 2.3203-2.2383 3.5-3.3555-4.1484 3.8906-8.1641 7.918-12.059 12.066 0.20703-0.19922 0.39062-0.39062 0.54688-0.55859z"/>
  <path d="m182.4 441.56c-1.7266-9.7266-2.6484-19.738-2.6484-29.992 0-18.082 2.8164-35.516 8.0117-51.891-16.312 22.141-28.676 46.266-37.105 71.438 10.09 4.5 20.711 8.0156 31.742 10.445z"/>
  <path d="m223.98 450.12 0.10156 0.10547h-5.6875c-10.242 0-20.262-0.92969-30-2.6641 2.4375 11.043 5.9453 21.668 10.445 31.762 25.176-8.4219 49.309-20.781 71.461-37.102-14.688 4.6562-30.227 7.3867-46.32 7.8984z"/>
  <path d="m405.48 305.32c0.99219-0.35156 1.9805-0.72266 2.9609-1.0977-0.42578-0.95312-0.86328-1.9102-1.3047-2.8555-0.98438 0.375-1.9766 0.74609-2.9727 1.0977 0.45313 0.95703 0.89063 1.9062 1.3164 2.8555z"/>
  <path d="m291.62 224.16c1.2148 0.34766 2.418 0.72266 3.6289 1.0859-0.36328-1.2109-0.73828-2.4062-1.0938-3.625-1.1641-0.33984-2.3477-0.65625-3.5156-0.98438 0.32422 1.1758 0.63672 2.3594 0.98047 3.5234z"/>
  <path d="m395.14 274.18-1.8477 2.9688-0.87891-1.2109c-0.55469 1.0469-1.0977 2.1016-1.6562 3.1406l0.62891 0.90234-0.63672 0.91406c0.56641 1.0352 1.1094 2.0898 1.6562 3.1289l0.89062-1.2305 1.8555 2.9727c0.64453 1.043 1.25 2.082 1.8594 3.1289 0.98438-0.38672 1.9766-0.78906 2.9609-1.1875-1.2695-2.1797-2.5664-4.3398-3.9297-6.4531l-0.83594-1.2812 0.83594-1.2812c1.3672-2.1016 2.6562-4.2578 3.9102-6.4219-0.98438-0.39844-1.9727-0.80078-2.9609-1.1875-0.61719 1.0391-1.2109 2.0703-1.8516 3.0977z"/>
  <path d="m404.72 225.26c1.2031-0.36328 2.4062-0.73828 3.625-1.0938 0.33984-1.1641 0.65625-2.3477 0.98047-3.5156-1.1719 0.32422-2.3516 0.63672-3.5234 0.98047-0.33984 1.2148-0.71875 2.418-1.082 3.6289z"/>
  <path d="m408.34 335.8c-1.2148-0.35156-2.418-0.72266-3.625-1.0859 0.36328 1.2109 0.73828 2.4141 1.0859 3.625 1.1641 0.33984 2.3477 0.65625 3.5156 0.98437-0.32031-1.1758-0.63672-2.3516-0.97656-3.5234z"/>
  <path d="m377.74 328.45 2.3359 0.95312c6.6406 2.6992 13.422 5.1172 20.324 7.293-0.36328-1.2148-0.71094-2.4375-1.0977-3.6445-6.332-2.0508-12.594-4.3125-18.727-6.832l-1.9336-0.79688 0.55859-2.0117c0.58984-2.1328 1.1133-4.3047 1.6172-6.4844-1.1094 0.20703-2.2227 0.40234-3.3438 0.58984-0.32422 1.3477-0.64453 2.6953-1.0078 4.043l-0.71875 2.6484-2.5078-1.1133c-0.64844-0.28516-1.2773-0.58203-1.8711-0.84375l-1.9492-0.88672 0.69922-2.0234c0.085937-0.23438 0.15625-0.49219 0.23437-0.72656-1.1367 0.14453-2.2852 0.27344-3.4336 0.39844l-0.33984 1.0117-1.0117-0.5c-0.89453 0.72266-1.7969 1.4453-2.7031 2.1445 0.24219 0.125 0.48828 0.25391 0.72656 0.37109l1.9219 0.93359-0.73828 1.9805c0.92578 0.51562 1.8477 1.0234 2.7812 1.5195l0.8125-2.1562 2.2852 1.043c0.75 0.33984 1.4961 0.67188 2.2344 1.0039l1.9531 0.85156-0.66016 2.0273c-0.050782 0.15625-0.10547 0.30078-0.15625 0.46484 0.95312 0.44922 1.9023 0.89062 2.8633 1.3203 0.015625-0.0625 0.042969-0.125 0.0625-0.17969z"/>
  <path d="m375.32 335.48c-0.95703-0.42578-1.9023-0.86328-2.8555-1.3086-0.35156 0.99219-0.71875 1.9727-1.0938 2.9453 0.94531 0.44922 1.9023 0.875 2.8555 1.3008 0.38281-0.97266 0.74219-1.9531 1.0938-2.9375z"/>
  <path d="m328.62 337.1c-0.375-0.98438-0.73828-1.9648-1.0938-2.9453-0.95312 0.44141-1.9023 0.87891-2.8555 1.3047 0.35156 0.98438 0.71875 1.9648 1.0859 2.9336 0.95703-0.41406 1.9102-0.85156 2.8633-1.293z"/>
  <path d="m365.8 330.87c-0.92969-0.49219-1.8594-0.99609-2.7812-1.5078-0.37891 0.97266-0.76563 1.9492-1.1641 2.918 0.92578 0.50781 1.8477 1.0039 2.7773 1.4883 0.39453-0.96094 0.78125-1.9297 1.168-2.8984z"/>
  <path d="m301.52 307.73-0.94531 2.3359c-2.7109 6.6406-5.1289 13.43-7.3008 20.34 1.2148-0.36328 2.4414-0.71875 3.6445-1.0938 2.0547-6.3438 4.3164-12.605 6.8359-18.75l0.79688-1.9336 2.0117 0.56641c2.1406 0.58984 4.3164 1.1211 6.5117 1.6172-0.21094-1.1094-0.40234-2.2227-0.59375-3.3438-1.3555-0.33203-2.7109-0.64453-4.0664-1.0195l-2.6523-0.70703 1.1211-2.5078c0.29297-0.64844 0.58203-1.2656 0.85156-1.8594l0.89062-1.9414 2.0156 0.69531c0.24219 0.085938 0.50781 0.16406 0.76172 0.24609-0.14453-1.1367-0.27344-2.2852-0.40234-3.4336l-1.0469-0.35156 0.50781-1.043c-0.72266-0.89453-1.4453-1.793-2.1445-2.7031-0.125 0.25391-0.26172 0.50781-0.37891 0.76172l-0.93359 1.9219-1.9609-0.73438c-0.51562 0.92578-1.0234 1.8555-1.5234 2.7812l2.1328 0.80078-1.043 2.2891c-0.33594 0.74609-0.67188 1.4883-0.99609 2.2305l-0.85547 1.9414-2.0156-0.64844c-0.15234-0.050781-0.28516-0.10156-0.4375-0.15234-0.45313 0.95312-0.89453 1.9102-1.3281 2.8672 0.050782 0.015625 0.10547 0.039062 0.15625 0.054687z"/>
  <path d="m336.97 329.35c-0.92578 0.51562-1.8477 1.0117-2.7812 1.5078 0.37891 0.97266 0.77344 1.9375 1.1641 2.9023 0.92969-0.48828 1.8594-0.98047 2.7812-1.4883-0.39062-0.98047-0.77734-1.9531-1.1641-2.9219z"/>
  <path d="m355.91 334.35c-1.9883-1.1406-3.9648-2.3281-5.9258-3.5781-1.9531 1.2383-3.9219 2.418-5.8906 3.5625 1.8555 4.3438 3.8203 8.6641 5.9141 12.926 2.0898-4.2578 4.0508-8.5703 5.9023-12.91z"/>
  <path d="m295.26 334.72c-1.2031 0.35938-2.4141 0.73828-3.625 1.0859-0.34766 1.1641-0.66016 2.3477-0.98438 3.5156 1.1719-0.32422 2.3516-0.63672 3.5156-0.98047 0.34766-1.207 0.72656-2.4141 1.0938-3.6211z"/>
  <path d="m401.03 306.89c-0.42969-0.95703-0.875-1.9141-1.3281-2.8672-0.15625 0.054687-0.30078 0.10547-0.46484 0.15625l-2.0234 0.64844-0.85547-1.9414c-0.33203-0.74609-0.66797-1.4961-1.0078-2.2383l-1.0352-2.2852 2.1523-0.8125c-0.5-0.93359-1.0039-1.8594-1.5234-2.7812l-1.9805 0.73828-0.93359-1.9141c-0.11719-0.24609-0.24609-0.49219-0.37109-0.73438-0.69922 0.90234-1.4219 1.8047-2.1523 2.6992l0.5 1.0195-1.0117 0.34766c-0.125 1.1484-0.25391 2.2891-0.39844 3.4258 0.23438-0.078124 0.49219-0.15234 0.72656-0.23437l2.0156-0.69531 0.88672 1.9414c0.26953 0.59766 0.56641 1.2227 0.85156 1.8711l1.125 2.5078-2.6562 0.72266c-1.3438 0.35938-2.6953 0.68359-4.043 1.0078-0.19141 1.1211-0.37891 2.2344-0.59375 3.3477 2.1914-0.50391 4.3555-1.0312 6.4961-1.6172l2.0117-0.55859 0.79688 1.9336c2.5195 6.1328 4.7773 12.387 6.832 18.727 1.2109 0.375 2.4297 0.72656 3.6445 1.0938-2.1719-6.8945-4.5859-13.688-7.293-20.324l-0.94531-2.3359 2.3984-0.78906c0.054688-0.011719 0.11719-0.042969 0.17969-0.058594z"/>
  <path d="m315.74 322.62c-0.58203-2.2383-1.1211-4.4922-1.6172-6.7461-2.2617-0.5-4.5195-1.0352-6.7656-1.6172-1.7461 4.3555-3.375 8.7734-4.8906 13.262 4.4805-1.5156 8.9102-3.1523 13.273-4.8984z"/>
  <path d="m348.7 326.03 1.2812-0.82812 1.2812 0.82812c2.1094 1.3711 4.2773 2.6641 6.457 3.9297 0.39844-0.98438 0.80078-1.9766 1.1797-2.9609-1.043-0.60547-2.0898-1.2109-3.125-1.8555l-2.9727-1.8477 1.2305-0.89453c-1.0547-0.54688-2.1016-1.0859-3.1406-1.6562l-0.92578 0.64453-0.89453-0.63281c-1.043 0.57031-2.0938 1.1094-3.1406 1.6641l1.2148 0.87891-2.9727 1.8438c-1.0312 0.64453-2.0625 1.2383-3.0898 1.8359 0.38672 0.99219 0.78516 1.9805 1.1875 2.9609 2.1758-1.2617 4.3242-2.543 6.4297-3.9102z"/>
  <path d="m339.05 242.79c1.2266 0.62891 2.457 1.2422 3.6719 1.8828l1.5-1.9141 0.25391-0.19141c0.125-0.09375 0.24609-0.17969 0.375-0.26953-1.0195-0.54297-2.0312-1.0859-3.0625-1.6172-0.91797 0.69531-1.832 1.3984-2.7383 2.1094z"/>
  <path d="m355.51 242.59 0.25391 0.19141 1.4961 1.9023c1.2109-0.63672 2.4453-1.2539 3.668-1.8828-0.90625-0.71094-1.8242-1.4102-2.7383-2.1055-1.0312 0.52734-2.043 1.0742-3.0625 1.6172 0.12891 0.097656 0.25781 0.18359 0.38281 0.27734z"/>
  <path d="m299 253.1c0.42969 0.95703 0.875 1.9102 1.3281 2.8633 0.14062-0.042969 0.26953-0.09375 0.41406-0.14062l2.0156-0.65625 0.86328 1.9414c0.33203 0.74609 0.66016 1.4883 0.99609 2.2305l1.043 2.2891-2.1094 0.79688c0.5 0.92969 1.0078 1.8594 1.5234 2.7812l1.9375-0.72266 0.93359 1.9219c0.11719 0.24219 0.24609 0.49219 0.37109 0.73438 0.70703-0.90625 1.4219-1.8047 2.1523-2.6992l-0.5-1.0195 1.0547-0.35156c0.125-1.1484 0.25391-2.2969 0.39844-3.4336-0.24609 0.085937-0.51953 0.16406-0.76562 0.24609l-2.0156 0.69531-0.88672-1.9414c-0.26953-0.59375-0.55859-1.2148-0.85156-1.8594l-1.1211-2.5156 2.6602-0.71875c1.3477-0.36328 2.7109-0.6875 4.0664-1.0117 0.19141-1.1211 0.38672-2.2344 0.59375-3.3438-2.1992 0.50391-4.3789 1.0312-6.5234 1.6289l-2.0117 0.55859-0.79688-1.9336c-2.5273-6.1484-4.7891-12.422-6.8438-18.781-1.2109-0.37891-2.4297-0.72656-3.6445-1.0938 2.1797 6.9141 4.5977 13.719 7.3086 20.371l0.95312 2.3359-2.3984 0.78906c-0.054687 0.007812-0.10547 0.03125-0.14453 0.039062z"/>
  <path d="m398.45 252.26 0.94531-2.3359c2.7109-6.6484 5.1289-13.445 7.3086-20.355-1.2148 0.36328-2.4414 0.71094-3.6445 1.0977-2.0625 6.3516-4.3242 12.617-6.8438 18.762l-0.79688 1.9336-2.0117-0.55859c-2.1328-0.59375-4.3047-1.1211-6.4961-1.6172 0.20703 1.1094 0.40234 2.2227 0.59375 3.3438 1.3477 0.32422 2.6992 0.64844 4.043 1.0117l2.6562 0.71875-1.125 2.5156c-0.28516 0.64844-0.58203 1.2656-0.85156 1.8633l-0.89062 1.9492-2.0156-0.69922c-0.23438-0.078125-0.49219-0.15625-0.73438-0.23438 0.14453 1.1367 0.27344 2.2852 0.39844 3.4336l1.0117 0.34766-0.48828 0.99609c0.72656 0.89453 1.4453 1.7969 2.1523 2.7031 0.11719-0.23437 0.24219-0.47656 0.35938-0.71094l0.93359-1.9141 1.9609 0.73438c0.51953-0.92578 1.0312-1.8555 1.5234-2.7812l-2.1328-0.80078 1.043-2.2891c0.33984-0.75 0.67578-1.4961 1.0078-2.2383l0.85547-1.9414 2.0234 0.65625c0.15234 0.050782 0.28516 0.10156 0.44141 0.15234 0.45312-0.95312 0.89453-1.9023 1.3281-2.8633-0.050781-0.015625-0.11328-0.039063-0.16406-0.054688z"/>
  <path d="m372.47 225.83c0.94531-0.44922 1.8984-0.87891 2.8516-1.3047-0.35156-0.99609-0.72266-1.9805-1.0977-2.9688-0.95703 0.42578-1.9023 0.86328-2.8555 1.3008 0.37891 0.98828 0.74609 1.9766 1.1016 2.9727z"/>
  <path d="m323.19 344.64c-9.1406 3.7578-18.531 6.7148-28.078 8.832-3.8594 17.012-6.0586 34.652-6.418 52.762 0.98438 4.4805 2.1523 8.9219 3.5039 13.312 4.0195-2.1094 7.9453-4.375 11.75-6.8086 12.602-13.086 23.555-27.172 32.883-41.973-5.2617-8.2539-9.8281-16.988-13.641-26.125z"/>
  <path d="m453.79 344.6c-11.148-1.1523-22.098-2.9727-32.793-5.4648l-1.4609-0.33984-0.3125-1.4688c-2.0703-9.7812-5.0742-19.414-8.9258-28.777-0.99219 0.375-1.9805 0.75-2.9805 1.1016 3.2969 7.9922 5.9922 16.172 7.9688 24.5l0.90625 3.8398-2.5547-0.6875c0.32422 1.1602 0.66016 2.3125 0.96875 3.4766 0.26172 0.074218 0.52734 0.14453 0.77344 0.20703l1.4727 0.37109 0.26953 1.5c0.003906 0.054687 0.011718 0.10547 0.023437 0.16406 8.25 1.3047 16.566 2.0156 24.891 2.0156 3.9258 0.007813 7.8398-0.14844 11.754-0.4375z"/>
  <path d="m300.63 293.04c-0.97266-0.38672-1.9492-0.77734-2.918-1.1719-0.50781 0.92578-1.0039 1.8555-1.4883 2.7812 0.96484 0.39062 1.9336 0.78516 2.9023 1.1641 0.49219-0.92188 0.98828-1.8516 1.5039-2.7734z"/>
  <path d="m295.64 285.92c1.1484-1.9883 2.3398-3.9688 3.5898-5.9414-1.2422-1.9531-2.4258-3.9258-3.5664-5.9062-4.3633 1.8594-8.6875 3.832-12.953 5.9297 4.2617 2.1016 8.5781 4.0664 12.93 5.918z"/>
  <path d="m246.39 215.39c11.09 1.1523 21.984 2.9688 32.633 5.4492l1.457 0.33984 0.30859 1.4609c2.082 9.8008 5.0781 19.434 8.9375 28.801 0.99219-0.375 1.9805-0.74609 2.9727-1.1016-3.3047-7.9922-5.9961-16.184-7.9727-24.523l-0.91406-3.8359 2.4961 0.67188c-0.32422-1.1602-0.66016-2.3125-0.96875-3.4766-0.24609-0.066406-0.48828-0.13281-0.71875-0.19141l-1.4727-0.37109-0.26953-1.4961c-0.003906-0.039062-0.011718-0.074219-0.015624-0.11719-8.293-1.3164-16.66-2.0391-25.02-2.0391-3.8242 0-7.6406 0.15625-11.453 0.42969z"/>
  <path d="m282.85 343c0.003907-0.050781 0.015626-0.10156 0.023438-0.14453l0.26953-1.4961 1.4688-0.37109c0.23438-0.0625 0.48828-0.125 0.74609-0.19531 0.30859-1.1641 0.64844-2.3203 0.96875-3.4727l-2.5273 0.67578 0.91406-3.8398c1.9805-8.332 4.6719-16.516 7.9688-24.504-0.99609-0.35156-1.9805-0.72656-2.9727-1.1016-3.8516 9.3633-6.8555 18.988-8.9258 28.777l-0.3125 1.4688-1.457 0.33984c-10.703 2.4883-21.656 4.3125-32.809 5.4648 3.8711 0.29297 7.7578 0.44922 11.637 0.44922 8.3516-0.015626 16.719-0.73438 25.008-2.0508z"/>
  <path d="m300.65 266.96c-0.50781-0.92578-1.0117-1.8477-1.5078-2.7812-0.97266 0.37891-1.9375 0.77344-2.9023 1.1641 0.48828 0.92969 0.98047 1.8594 1.4883 2.7812 0.96875-0.39062 1.9414-0.77734 2.9219-1.1641z"/>
  <path d="m399.36 293.02c0.50781 0.92578 1.0078 1.8477 1.5078 2.7812 0.98047-0.38672 1.9531-0.78516 2.9297-1.1758-0.49219-0.93359-0.98438-1.8594-1.4961-2.7812-0.97656 0.40234-1.9609 0.78906-2.9414 1.1758z"/>
  <path d="m417.13 216.98c-0.003906 0.042969-0.011718 0.089844-0.023437 0.12891l-0.26953 1.4883-1.4688 0.375c-0.24219 0.0625-0.5 0.12891-0.75781 0.20703-0.3125 1.1641-0.64453 2.3203-0.96875 3.4766l2.5352-0.68359-0.91406 3.8398c-1.9766 8.3398-4.6719 16.527-7.9805 24.523 0.99609 0.35156 1.9883 0.72656 2.9805 1.1016 3.8516-9.3672 6.8594-19.008 8.9375-28.805l0.30859-1.4609 1.457-0.33984c10.641-2.4766 21.527-4.2969 32.613-5.4414-3.8477-0.28516-7.6953-0.44141-11.547-0.44141-8.3164 0.011719-16.641 0.72266-24.902 2.0312z"/>
  <path d="m334.18 229.14c0.92969 0.49219 1.8594 0.99219 2.7812 1.5078 0.37891-0.97266 0.77344-1.9492 1.1641-2.918-0.92578-0.50391-1.8555-0.99609-2.7812-1.4883-0.38672 0.96484-0.77734 1.9297-1.1641 2.8984z"/>
  <path d="m363.04 230.63c0.92578-0.50781 1.8477-1.0117 2.7773-1.5078-0.37891-0.96875-0.77344-1.9375-1.1641-2.9023-0.93359 0.48828-1.8594 0.98047-2.7812 1.4844 0.39844 0.97656 0.78516 1.9531 1.168 2.9258z"/>
  <path d="m344.07 225.66c1.9805 1.1484 3.9531 2.3281 5.9062 3.5664 1.9648-1.2422 3.9492-2.4375 5.9414-3.5859-1.8594-4.3555-3.8203-8.668-5.918-12.938-2.1016 4.2773-4.0703 8.6016-5.9297 12.957z"/>
  <path d="m609.09 313.48c-1.8047 0.98438-3.6172 1.9414-5.4375 2.8828 1.2305 3.4727 2.3594 6.9766 3.3672 10.504 0.80078-4.4492 1.4922-8.9102 2.0703-13.387z"/>
  <path d="m399.35 266.97c0.97266 0.38672 1.9492 0.77344 2.918 1.1641 0.50391-0.92578 1.0039-1.8477 1.4883-2.7773-0.96484-0.39062-1.9336-0.78516-2.9023-1.1641-0.49609 0.92969-0.99609 1.8516-1.5039 2.7773z"/>
  <path d="m324.67 224.54c0.95312 0.42578 1.9023 0.86328 2.8555 1.3047 0.35156-0.99219 0.72266-1.9805 1.0977-2.9688-0.95312-0.44922-1.9023-0.87891-2.8555-1.3047-0.375 0.98047-0.73828 1.9727-1.0977 2.9688z"/>
  <path d="m295.86 257.53c-0.44922-0.94531-0.87891-1.8984-1.3086-2.8555-0.98438 0.35156-1.9648 0.71875-2.9414 1.0859 0.42578 0.95703 0.85547 1.9102 1.3047 2.8633 0.97266-0.37891 1.957-0.74219 2.9453-1.0938z"/>
 </g>
</svg>
